<?xml version="1.0" standalone="no"?>
<!DOCTYPE svg PUBLIC "-//W3C//DTD SVG 1.1//EN" "http://www.w3.org/Graphics/SVG/1.1/DTD/svg11.dtd" >
<!--
2017-8-14: Created.
-->
<svg xmlns="http://www.w3.org/2000/svg">
<metadata>
Created by FontForge 20120731 at Mon Aug 14 00:59:31 2017
 By icons8

</metadata>
<defs>
<font id="application" horiz-adv-x="512" >
  <font-face 
    font-family="application"
    font-weight="500"
    font-stretch="normal"
    units-per-em="512"
    panose-1="2 0 6 3 0 0 0 0 0 0"
    ascent="448"
    descent="-64"
    bbox="-0.237009 -66.1699 967.68 448.068"
    underline-thickness="25.6"
    underline-position="-51.2"
    unicode-range="U+0020-F122"
  />
    <missing-glyph />
    <glyph glyph-name="space" unicode=" " horiz-adv-x="200" 
 />
    <glyph glyph-name="comment" unicode="&#xf105;" 
d="M140.8 304.213c0 0 -12.7998 0 -12.7998 15.7871c0 13.4404 12.7998 16.2129 12.7998 16.2129h101.974s13.2266 -2.77246 13.2266 -15.1465c0 -16.8535 -13.2266 -16.8535 -13.2266 -16.8535h-101.974zM307.2 208.213c0 0 12.373 -2.55957 12.373 -16.2129
c-0.212891 -13.2266 -12.373 -15.3604 -12.373 -15.3604l-166.4 -0.212891s-12.5869 2.13281 -12.7998 15.5732c-0.212891 13.6533 12.7998 16.2129 12.7998 16.2129h166.4zM502.827 439.894c7.89258 -8.10645 9.17285 -24.3203 8.95996 -24.3203v-319.146
s0 -14.9336 -8.10742 -23.04c-7.89258 -8.10645 -23.6797 -9.38672 -23.6797 -9.38672h-233.387l-120.747 -120.747s-3.41309 -7.25293 -18.3467 -7.25293c-10.666 0 -11.3066 14.293 -11.3066 14.293v113.494h-64.4258s-15.5742 2.13281 -23.6807 10.4531
c-7.67969 7.89258 -8.10645 21.9727 -8.10645 21.9727v319.36s0.639648 13.8672 8.10645 22.1865c9.38672 10.2402 23.6807 10.2402 23.6807 10.2402h448.426s14.5068 0 22.6143 -8.10645zM480.213 107.946v296.32s-1.70605 5.12012 -5.11914 8.10645
c-2.9873 2.77344 -7.68066 3.41406 -7.68066 3.41406h-423.894s-4.69238 -1.49414 -7.67969 -4.48047c-2.98633 -2.98633 -4.05273 -7.25293 -4.05273 -7.25293v-295.681s1.06641 -4.2666 4.05273 -7.25293c2.9873 -2.9873 7.67969 -4.69336 7.67969 -4.69336h66.9873
s7.89355 -0.639648 12.373 -4.69336c4.2666 -4.05371 5.12012 -11.3066 5.12012 -11.3066v-89.1738l89.1738 90.0273s8.5332 8.5332 18.3457 12.373c9.60059 3.62695 20.4805 2.55957 20.4805 2.55957h211.413s4.48047 0.640625 7.68066 3.62695
c3.19922 2.98633 5.11914 8.10645 5.11914 8.10645zM370.773 271.787c0 0 13.6533 -1.9209 13.2266 -15.3604c-0.426758 -16 -13.2266 -16 -13.2266 -16h-229.974s-13.0127 2.34668 -12.7998 16c0.212891 12.373 12.7998 15.7861 12.7998 15.7861z" />
    <glyph glyph-name="tap" unicode="&#xf11d;" 
d="M431.729 27.1191c0 0 1.08496 -32.543 -28.2031 -64.001c-27.1182 -27.1182 -60.7461 -29.2881 -60.7461 -29.2881h-131.254s-29.2881 0 -56.4062 26.0342c-19.5264 19.5254 -28.2041 50.9834 -28.2041 50.9834l-27.1182 80.2705s-9.7627 23.8652 -1.08496 41.2207
c13.0166 24.9492 46.6436 45.5596 46.6436 45.5596l1.08496 50.9824s-32.542 11.9326 -52.0674 44.4746c-13.0176 23.8652 -15.1865 65.085 -11.9326 86.7803c6.50879 37.9658 44.4746 87.8643 101.967 87.8643c60.7451 0 92.2031 -40.1357 104.135 -66.1699
c7.59375 -22.7793 10.8477 -53.1523 4.33887 -77.0166c-8.67773 -30.373 -29.2881 -52.0674 -29.2881 -52.0674s8.67871 0 16.2715 -6.50879c6.50879 -6.50879 13.0166 -17.3555 13.0166 -17.3555s11.9326 16.2705 32.543 15.1855
c28.2031 -2.16895 34.7119 -23.8643 34.7119 -23.8643s11.9316 15.1865 33.627 14.1016c32.542 -2.16895 37.9658 -39.0508 37.9658 -39.0508v-168.135zM112.813 275.525c15.1865 -22.7793 34.7119 -30.373 35.7969 -29.2881v24.9492s-40.1357 21.6953 -31.458 75.9326
c11.9326 67.2539 62.915 65.084 72.6777 65.084c22.7803 0 65.085 -11.9316 72.6787 -57.4912c10.8467 -58.5762 -31.458 -83.5254 -31.458 -83.5254v-23.8643s50.9834 16.2705 52.0674 95.457c0 48.8135 -53.1523 94.373 -96.542 91.1191
c-57.4912 -4.33887 -91.1182 -56.4072 -91.1182 -92.2031c-1.08496 -24.9492 6.50781 -49.8984 17.3555 -66.1699zM187.661 375.322c41.2207 0 41.2207 -42.3057 43.3896 -40.1357v-44.4746s28.2031 22.7793 16.2715 65.085
c-11.9326 40.1357 -49.8984 42.3047 -59.6611 42.3047s-47.7285 -3.25391 -57.4912 -46.6436c-9.7627 -44.4746 17.3555 -61.8311 17.3555 -61.8311v46.6445s0 39.0508 40.1357 39.0508zM400.271 -19.5254c19.5254 24.9492 16.2705 61.8301 15.1865 64v152.949
s-1.08496 24.9492 -26.0342 26.0342c-22.7793 0 -24.9492 -23.8652 -24.9492 -23.8652l-1.08496 -57.4912s0 -7.59277 -7.59277 -7.59277c-6.50879 1.08398 -6.50879 7.59277 -6.50879 7.59277v60.7461s2.16992 28.2031 -26.0342 28.2031
c-23.8643 -1.08496 -26.0332 -23.8643 -26.0332 -23.8643l-1.08496 -55.3223s0 -8.67773 -7.59375 -8.67773c-7.59277 0 -6.50781 8.67773 -6.50781 8.67773v55.3223s-1.08496 29.2881 -26.0342 30.373s-28.2031 -22.7803 -28.2031 -22.7803l1.08496 -57.4912
s-1.08496 -6.50879 -6.50879 -6.50879s-6.50879 6.50879 -6.50879 6.50879l-2.16895 178.983s-3.25488 23.8643 -28.2041 23.8643c-21.6943 0 -24.9492 -23.8643 -24.9492 -23.8643v-247.322s0 -6.50879 -7.59277 -7.59277
c-6.50879 -1.08496 -6.50879 7.59277 -6.50879 7.59277v70.5088s-30.373 -19.5254 -36.8809 -37.9668c-4.33887 -11.9316 10.8477 -48.8135 10.8477 -48.8135l22.7793 -70.5078s8.67773 -23.8652 26.0342 -36.8818c19.5254 -13.0166 46.6436 -15.1865 46.6436 -15.1865
l131.255 1.08496s32.542 4.33887 53.1523 29.2881zM184.407 448v0c60.7451 0 92.2031 -40.1357 103.051 -66.1699c7.59277 -22.7793 10.8467 -53.1523 4.33887 -77.0166c-8.67871 -30.373 -29.2881 -52.0674 -29.2881 -52.0674s8.67773 0 16.2705 -6.50879
c6.50879 -6.50879 13.0176 -17.3555 13.0176 -17.3555s10.8477 15.1855 30.373 15.1855h2.16895c28.2031 -2.16895 34.7119 -23.8643 34.7119 -23.8643s11.9326 14.1016 31.458 14.1016h3.25391c32.542 -2.16895 37.9658 -39.0508 37.9658 -39.0508v-169.22
s2.16992 -32.543 -28.2031 -62.916c-27.1182 -27.1182 -60.7461 -29.2881 -60.7461 -29.2881h-131.254s-29.2881 0 -56.4062 26.0342c-19.5264 19.5254 -28.2041 50.9834 -28.2041 50.9834l-27.1182 80.2705s-9.7627 23.8652 -1.08496 41.2207
c13.0166 24.9492 46.6436 45.5596 46.6436 45.5596l1.08496 50.9824s-32.542 11.9326 -52.0674 44.4746c-13.0176 23.8652 -15.1865 65.085 -11.9326 86.7803c6.50879 37.9658 44.4746 87.8643 101.967 87.8643zM147.525 245.152v0l1.08496 26.0342
s-40.1357 21.6943 -31.458 75.9326c11.9326 67.2539 62.915 65.084 72.6777 65.084h1.08496c22.7803 0 64 -13.0166 71.5938 -57.4912c10.8467 -58.5762 -31.458 -83.5254 -31.458 -83.5254v-23.8643s50.9834 16.2705 52.0684 95.457
c0 46.6445 -48.8145 91.1191 -92.2041 91.1191h-4.33887c-57.4912 -4.33887 -91.1182 -56.4072 -91.1182 -92.2031c-1.08496 -24.9492 6.50781 -49.8984 17.3555 -66.1699c15.1865 -22.7793 34.7119 -30.373 34.7119 -30.373zM147.525 288.542h2.16992v48.8135
s0 39.0518 40.1348 39.0518v0c41.2207 0 41.2207 -42.3057 41.2207 -42.3057v-44.4746s28.2031 22.7803 16.2715 65.085c-11.9326 40.1357 -49.8984 42.3047 -59.6611 42.3047s-47.7285 -3.25391 -57.4912 -46.6436c-9.7627 -44.4746 17.3555 -61.8311 17.3555 -61.8311z
M152.949 80.2715v0c-5.42383 0 -5.42383 8.67773 -6.50879 8.67773v70.5088s-30.373 -19.5254 -36.8809 -37.9668c-4.33887 -11.9316 10.8477 -48.8135 10.8477 -48.8135l22.7793 -70.5078s8.67773 -23.8652 26.0342 -36.8818
c19.5254 -13.0166 46.6436 -15.1865 46.6436 -15.1865l131.255 1.08496s32.542 4.33887 52.0674 31.458c20.6104 24.9482 17.3555 61.8301 17.3555 61.8301v152.949s-1.08398 24.9492 -26.0332 26.0342h-1.08496c-21.6953 0 -23.8643 -23.8652 -23.8643 -23.8652
l-1.08496 -57.4912s0 -7.59277 -7.59277 -7.59277v0c-6.50879 1.08398 -6.50879 7.59277 -6.50879 7.59277v60.7461s1.08496 28.2031 -26.0342 28.2031v0c-23.8643 -1.08496 -26.0342 -23.8643 -26.0342 -23.8643l-1.08398 -55.3223s0 -8.67773 -7.59375 -8.67773v0
c-7.59277 0 -6.50781 8.67773 -6.50781 8.67773v55.3223s-1.08496 29.2881 -26.0342 30.373h-2.16992c-22.7793 0 -26.0332 -22.7803 -26.0332 -22.7803l1.08398 -57.4912s-1.08398 -6.50879 -6.50781 -6.50879v0c-5.42383 0 -6.50879 6.50879 -6.50879 6.50879
l-2.16992 178.983s-3.25391 23.8643 -27.1182 23.8643h-1.08496c-21.6943 0 -24.9492 -23.8643 -24.9492 -23.8643v-248.407s-1.08496 -6.50879 -8.67773 -7.59277c1.08496 0 1.08496 0 0 0z" />
    <glyph glyph-name="rocket" unicode="&#xf118;" 
d="M227.556 206.899c23.2969 0 41.7188 -18.9629 41.7188 -42.2607c0 -23.2969 -18.4219 -42.2598 -41.7188 -42.2598c-22.7559 0 -41.7188 18.9629 -41.7188 42.2598c0 23.2979 18.4209 42.2607 41.7188 42.2607zM227.014 140.258
c11.9199 0 22.2139 10.2949 22.2139 22.2139c0 12.4619 -9.75195 22.2139 -22.2139 22.2139c-12.4609 0 -22.2139 -9.75195 -22.2139 -22.2139c0 -12.4609 9.75293 -22.2139 22.2139 -22.2139zM508.207 444.749c4.33496 -3.25098 3.25098 -9.20996 3.25098 -9.20996
s-8.12695 -88.8555 -44.4277 -160.915c-39.5508 -79.6445 -107.275 -142.493 -107.275 -142.493s0 -51.4707 -29.2578 -99.1484c-29.2568 -48.2207 -88.8545 -92.6484 -88.8545 -92.6484s-8.12695 -5.41797 -13.5449 -3.79199
c-5.41797 1.625 -8.66895 9.20996 -8.66895 9.20996l-20.5889 73.6855l-38.4678 -15.1709l-14.0859 8.66895s-8.12695 -17.8799 -31.9668 -30.3408c-42.8018 -22.7559 -113.777 -46.0527 -113.777 -46.0527s26.5479 74.2266 50.3867 117.028
c13.5449 24.3809 29.2578 27.6318 29.2578 27.6318l-13.5449 13.5449l16.2539 41.7188l-73.1436 20.0459s-7.04297 1.08398 -9.20996 5.41797c-2.70898 5.41895 4.33398 17.3379 4.33398 17.3379s36.8428 54.7217 83.4375 83.4375
c48.7617 30.3408 107.817 34.6748 107.817 34.6748s63.9326 66.0996 139.784 104.025c69.3506 34.6748 160.373 46.5947 160.373 46.5947s8.12695 0 11.9189 -3.25098zM25.4648 173.85l66.0996 -18.4209s19.5039 34.1328 39.5508 63.9326
c19.5049 28.7148 40.0928 53.6377 41.1768 53.6377c0.541992 0 -37.3838 -5.95996 -74.7686 -30.8828c-36.2998 -24.3809 -72.0586 -68.2666 -72.0586 -68.2666zM114.319 4.80859c16.7959 10.8359 15.7119 24.3809 15.1709 24.9229l-33.5918 35.2168
s-13.5449 0.541992 -26.5479 -20.0469c-16.2539 -26.0059 -32.5078 -74.2266 -32.5078 -74.2266s49.8447 16.7959 77.4766 34.1338zM299.073 24.3135c24.9229 36.8418 37.3838 85.6045 37.3838 85.6045s-24.3809 -22.2139 -50.3867 -40.6357
c-32.5088 -22.2139 -67.1836 -41.1768 -67.1836 -41.1768l18.4209 -64.4736s36.8428 24.3809 61.7656 60.6816zM338.624 137.008c69.3506 65.0156 114.861 160.914 114.861 160.914l-92.6475 90.4805s-88.8545 -43.8857 -154.412 -109.985
c-84.5215 -85.0625 -117.029 -180.419 -117.029 -180.419l75.3105 -72.0596s99.1494 40.6348 173.917 111.069zM481.659 372.148c5.95996 24.9229 7.04297 52.5547 7.04297 52.5547s-22.7549 -1.08398 -46.0527 -7.04395
c-28.7148 -7.04297 -59.5977 -18.9629 -59.5977 -18.9629l80.1865 -81.2695s11.3779 26.0059 18.4209 54.7217zM318.036 297.38c22.7559 0 41.7188 -18.9629 41.1768 -42.2607c0 -23.2969 -18.4209 -42.2598 -41.1768 -42.2598s-41.1768 18.9629 -41.1768 42.2598
c0 23.2979 18.4209 42.2607 41.1768 42.2607zM318.036 232.364c11.9189 0 21.6719 9.20996 21.6719 21.1299s-9.75293 21.1299 -21.6719 21.1299c-11.9199 0 -21.6719 -9.20996 -21.6719 -21.1299s9.75195 -21.1299 21.6719 -21.1299z" />
    <glyph glyph-name="dollar" unicode="&#xf109;" 
d="M328.872 192.271c0 0 9.21094 -10.8359 14.6289 -27.0898c3.79199 -16.2539 2.70898 -37.9258 -4.33496 -53.0957c-5.41797 -11.9199 -15.7119 -25.4648 -27.0898 -31.9668c-19.5049 -11.9189 -41.1768 -12.4609 -41.1768 -12.4609v-36.3008h-28.7148v35.7588
s-27.6318 3.25098 -46.5947 19.5049c-21.1309 18.4209 -27.0908 49.8457 -27.0908 49.8457l45.5117 13.0029s3.79199 -15.7119 11.3779 -26.0059c5.95898 -8.66895 16.7959 -11.9199 16.7959 -11.9199s24.9219 -6.50195 39.0088 4.33398
c15.7129 11.9199 9.21094 33.0498 9.21094 33.0498s-3.25098 8.12695 -14.6289 14.0869c-11.3779 5.41797 -27.0898 9.75293 -40.0928 15.1709c-16.2539 7.04297 -28.7158 14.0859 -28.7158 14.0859s-15.7119 9.21094 -24.3809 29.2578
c-5.95898 13.5449 -5.95898 36.2998 -2.70898 49.3037c4.87695 18.9629 15.1709 33.0498 27.0898 41.1768c16.2539 11.3779 35.2178 13.0029 35.2178 13.0029v27.0898h28.7148v-27.0898s26.5479 -2.16699 42.8018 -16.2539
c16.7959 -15.1709 23.8398 -41.1768 23.8398 -41.1768l-41.7188 -17.3379s-9.21094 26.5488 -25.4648 33.0498c-23.8389 9.75293 -36.8418 -9.75195 -36.8418 -9.75195s-7.04395 -8.66895 -3.79297 -21.6719c2.70898 -10.8359 19.5049 -18.9629 26.5479 -21.6719
c13.5449 -5.41797 33.5918 -11.9199 49.3037 -20.0469c13.5449 -7.04395 23.2979 -17.8799 23.2979 -17.8799zM436.148 373.231c100.774 -100.774 101.316 -261.146 -0.541992 -363.005c-98.6074 -99.1494 -260.063 -99.1494 -359.213 0
c-101.316 101.316 -101.858 262.772 -2.70898 361.922c101.858 101.857 263.314 100.232 362.464 1.08301zM412.309 31.8984c90.4805 89.9385 89.9395 230.807 2.16797 318.578c-88.8555 89.9385 -228.64 88.8545 -316.411 0
c-87.2295 -87.7715 -87.2295 -230.265 -3.79199 -313.702c92.1055 -91.5635 233.515 -88.8545 318.035 -4.87598z" />
    <glyph glyph-name="24h" unicode="&#xf101;" 
d="M496.83 225.862c13.5449 1.62598 15.1699 -10.8359 14.6279 -10.8359v-22.7559s-8.12695 -114.319 -72.0596 -178.793c-102.399 -102.942 -264.397 -104.025 -368.965 1.08301c-94.2725 94.8154 -93.7305 261.147 1.08398 354.337
c121.904 120.279 277.401 58.5146 274.15 59.5977c41.7188 -14.6289 76.9355 -44.4277 76.9355 -44.4277v54.1807s2.16699 7.58496 9.75195 9.75195h7.04297c7.04395 -2.16699 8.66895 -9.21094 8.66895 -9.21094v-86.1455s-0.541992 -7.04395 -3.79199 -10.8359
c-3.25098 -3.79297 -9.21094 -4.33496 -9.21094 -4.33496h-89.3965s-9.21094 0 -9.21094 12.4619c0 10.2939 9.21094 12.4609 9.21094 12.4609l59.0557 1.08398s-31.4238 27.0898 -68.8086 40.6348c2.16797 -1.08398 -132.74 56.8887 -247.06 -55.8057
c-79.6445 -79.6445 -81.2705 -232.432 -1.62598 -313.159c95.8984 -96.4404 241.101 -96.4404 336.999 -0.541992c56.8887 56.3467 61.2236 157.122 61.2236 157.122v20.0459s0 13.0039 11.3779 14.0869zM347.293 106.667c-15.1699 0 -16.7959 13.5449 -16.7959 13.5449
l1.08398 24.9229l-62.3066 1.08301s-14.0869 -0.541992 -16.7959 7.04395c-4.33496 13.0029 3.25098 21.1299 3.25098 21.1299l75.8516 98.6074s5.95996 8.66895 20.0469 4.87598c10.2939 -2.16699 12.4609 -14.0869 12.4609 -14.0869l1.08398 -89.9385l11.9189 -0.541992
s10.8359 1.08398 10.2949 -14.6279c-0.541992 -15.7129 -10.8369 -14.0869 -10.8369 -14.0869h-10.2939l-1.08301 -24.9229s-1.08398 -13.0029 -17.8799 -13.0029zM288.779 172.225h42.8018v53.6377zM191.255 198.772c11.3779 11.9199 15.1709 20.5879 15.1709 20.5879
s2.70898 9.21094 -0.541992 17.3379c-2.70898 6.50195 -10.8359 11.9199 -15.7119 12.4619c-4.87695 0.541016 -14.6289 -0.541992 -20.0469 -5.41797c-8.12695 -7.04395 -11.3779 -19.5049 -11.3779 -19.5049s-2.70898 -12.4619 -19.5049 -11.3779
c-14.0869 1.08301 -13.5449 16.7959 -13.5449 16.7959s2.16699 18.9629 14.0869 31.4238c15.7119 15.7119 41.1768 16.2539 41.1768 16.2539s25.4648 1.62598 42.2598 -9.20996c22.2139 -13.5449 21.1309 -39.0098 21.1309 -39.0098s-1.08398 -19.5049 -13.5449 -35.2168
c-10.2949 -12.4619 -29.2578 -26.0068 -40.6348 -35.7588c-11.9199 -10.2939 -16.2549 -16.7959 -16.2549 -16.7959l59.0566 -1.08398s14.0869 -2.16699 14.0869 -14.0859c-0.541992 -14.6289 -13.0029 -15.7129 -13.0029 -15.7129h-93.1895
s-9.75293 0.541992 -14.0869 10.8359c-4.33496 10.8359 3.25 20.0469 3.25 20.0469s8.12793 10.8359 21.1309 22.7559c12.4609 10.8359 29.2568 23.2969 40.0928 34.6748z" />
    <glyph glyph-name="video" unicode="&#xf122;" 
d="M435.2 376.96c103.04 -103.04 100.693 -268.8 2.98633 -366.293c-98.9863 -98.7734 -264.746 -100.48 -366.507 1.06641c-96.4268 96 -94.293 265.813 -2.13281 357.974c104.533 104.319 270.72 101.973 365.653 7.25293zM415.787 36.2666
c84.9062 85.1201 88.1064 224 -4.05371 316.16c-84.0537 83.627 -226.347 84.6934 -314.453 -3.2002c-87.4668 -87.2529 -86.4004 -228.479 -1.91992 -312.96c92.5859 -92.7998 229.12 -91.5195 320.427 0zM354.347 208.213c0 0 11.9463 -6.61328 12.373 -16
c0.213867 -9.38672 -11.3066 -16.4258 -11.3066 -16.4258l-140.373 -92.1602s-8.5332 -7.89355 -20.4805 -1.06738c-8.10645 4.69336 -7.25293 16.4268 -7.25293 16.4268v184.107s-1.28027 13.8662 6.18652 18.3467c10.8799 6.61328 22.6133 -1.06738 22.6133 -1.06738z
M220.16 126.293l100.267 65.4941l-100.267 65.4932v-130.987z" />
    <glyph glyph-name="skype" unicode="&#xf11a;" 
d="M471.296 161.024c0 0 50.1758 -92.1602 -7.67969 -158.208c-74.752 -84.7363 -171.521 -27.9043 -171.521 -27.9043s-49.4072 -11.7764 -107.52 7.67969c-31.4883 10.752 -70.6562 39.6807 -94.7197 63.7441c-25.8564 25.5996 -44.8008 66.3037 -51.2002 101.888
c-7.68066 43.0088 0 78.8486 0 78.8486s-56.5762 93.9521 15.3594 163.071c82.9443 79.6162 163.841 15.3604 163.841 15.3604s91.6475 20.9922 174.079 -43.2637c98.0488 -76.2881 79.3604 -201.216 79.3604 -201.216zM381.952 84.7363
c17.6641 36.3516 0 71.6797 0 71.6797s-15.6162 28.6719 -51.2002 45.8242c-38.6562 18.4316 -97.2803 25.3438 -97.2803 25.3438s-51.1992 8.95996 -38.3994 35.584c23.04 47.8721 71.9355 31.2324 90.3682 22.2725c15.1035 -9.72852 32.5117 -24.832 32.5117 -24.832
s27.1357 -32.5127 51.2002 -5.12012c23.5518 26.624 -12.8008 58.624 -12.8008 58.624s-37.8877 49.1514 -128 40.7041c-71.4238 -6.91211 -92.1592 -61.1846 -92.1592 -61.1846s-23.2959 -48.3838 -5.12012 -78.8477c21.248 -35.3281 84.4795 -53.5039 84.4795 -53.5039
s31.2324 -3.32812 53.7598 -10.2402c19.2002 -5.8877 30.7207 -12.7998 30.7207 -12.7998s22.7842 -17.1523 15.3594 -30.4639c-20.7354 -36.8643 -62.9756 -38.1445 -97.2793 -20.4805c-23.5527 12.0322 -40.96 38.1445 -40.96 38.1445s-24.3203 16.1279 -43.5205 2.55957
s-10.2402 -43.2637 -10.2402 -43.2637s23.04 -40.96 66.5605 -56.0645c61.4395 -21.248 130.56 0 130.56 0s43.5205 19.2002 61.4404 56.0645zM284.672 285.952c0.255859 -0.255859 0.511719 -0.255859 0.768555 -0.511719h0.255859
c-0.512695 0 -0.768555 0.255859 -1.02441 0.511719zM285.696 285.184v0c8.19141 -4.0957 9.9834 -6.39941 0 0z" />
    <glyph glyph-name="home" unicode="&#xf111;" 
d="M508.8 189.014c0 0 7.89355 -13.2266 -1.2793 -23.4668c-8.53418 -9.60059 -21.9736 -2.13379 -21.9736 -2.13379l-13.2266 10.8799v-200.533h-177.707v174.294h-71.6797v-174.294h-177.707v200.533l-13.0137 -11.9463s-17.9199 -13.4404 -28.1592 -2.98633
c-10.4541 10.666 2.13281 27.7334 2.13281 27.7334l242.561 221.653c1.91992 3.19922 5.75977 5.33301 10.0264 5.33301c3.83984 0 7.04004 -1.49316 9.17285 -4.05371v0zM436.906 9.59961h0.213867v196.693l-177.493 162.773l-178.347 -161.706v-197.761h107.093v164.693
s0 4.90723 2.56055 7.4668c2.13281 2.34668 7.25293 2.13379 7.25293 2.13379h122.88s4.05371 0.212891 6.18652 -2.13379c2.13379 -2.34668 2.56055 -7.4668 2.56055 -7.4668v-164.693h107.093z" />
    <glyph glyph-name="users" unicode="&#xf121;" 
d="M215.094 408.448c-14.6279 -21.6719 -13.5449 -60.6807 -13.5449 -60.1396l-17.8789 15.7129s3.25098 41.1768 22.2139 62.8486c17.3369 20.0459 50.9287 21.1299 50.9287 21.1299s31.9668 0 49.3037 -21.1299c6.50195 -7.58496 14.0869 -18.4219 17.3379 -28.7158
c5.95996 -18.9629 5.41797 -36.8418 5.41797 -36.8418l-18.4209 -14.0869s0.541016 40.6348 -14.0869 62.3066c-12.4619 18.9629 -40.0938 19.5049 -40.0938 19.5049s-28.1729 -1.625 -41.1768 -20.5889zM130.031 58.9883c-0.541016 0 -15.7119 -21.1299 -15.7119 -21.1299
s-24.9229 1.08301 -48.2197 4.33398c-18.9629 2.70898 -37.3838 8.12695 -37.3838 8.12695s-23.8398 5.95996 -28.1738 23.8398c-4.33496 16.7949 10.8359 45.5107 10.8359 45.5107s9.20996 13.5449 20.0469 20.0469c9.20996 5.95898 21.1299 8.12695 29.2568 10.8359
c7.58496 2.70898 11.9189 6.50098 11.9189 6.50098s-17.3369 1.62598 -29.2568 9.21094c-10.8359 6.50195 -16.2539 18.4209 -16.2539 18.4209s10.8359 14.0869 14.0869 37.3848c5.95996 28.7148 4.87598 67.1826 4.87598 67.1826s-5.41797 29.7988 20.5889 52.0127
c25.4639 22.2139 54.7217 8.66895 54.7217 8.66895s29.7988 11.9189 52.5537 -5.95996c26.5488 -21.1299 25.4648 -48.7617 25.4648 -48.7617l-17.8789 -8.66895s3.25098 27.6318 -18.4219 42.2607c-21.6719 14.0859 -41.1768 -1.08398 -41.1768 -1.08398
s-18.9629 16.2539 -42.8018 -0.541992c-18.4209 -13.5449 -14.6289 -39.0098 -14.6289 -39.0098s1.08398 -29.7988 -2.70898 -55.2627c-3.79199 -25.4648 -11.9189 -46.5947 -11.9189 -46.5947s5.41797 -5.95996 13.5449 -7.58594
c14.6289 -2.70898 35.7588 -2.16699 35.7588 -2.16699s1.625 -19.5049 -11.3779 -31.4238c-8.66895 -8.66895 -22.7559 -12.4619 -33.0498 -15.7129c-6.50195 -2.16699 -11.3779 -4.33398 -11.3779 -4.33398s-8.12695 -3.25098 -14.6279 -13.0029
c-6.50195 -8.66895 -10.8369 -23.2979 -10.2949 -30.8828c0.541992 -9.75195 23.8398 -14.6289 23.8398 -14.6289s24.3809 -5.95996 47.1357 -7.58496c21.6719 -1.625 41.1768 0 40.6348 0zM507.666 104.499c0 0 7.58496 -20.5879 2.16699 -36.2998
c-5.41797 -12.4619 -23.8389 -17.8799 -23.8389 -17.8799s-17.8799 -5.95996 -37.3848 -9.20996c-23.8389 -3.79297 -50.3867 -4.87695 -50.3867 -4.87695s-1.62598 4.87695 -5.41797 9.75293c-3.79297 4.87598 -10.2949 10.2939 -10.2949 10.2939
s31.9668 -0.541992 59.5977 3.25098c24.3818 3.25098 44.9697 10.8359 44.9697 10.8359s8.66895 3.25098 8.66895 10.2939c0 10.8359 -8.66895 27.0898 -8.66895 27.0898s-3.79199 8.66895 -10.8359 13.0039c-10.8359 6.50098 -26.5479 9.75195 -26.5479 9.75195
s-19.5049 4.87598 -27.6318 17.8789c-8.66895 14.6289 -5.95996 36.3008 -5.95996 36.3008s8.66895 12.4619 14.6289 25.4648c3.79199 9.20996 5.41797 20.0469 5.41797 20.0469s8.12695 4.33398 11.3779 11.9189c2.16699 5.95996 -0.541992 15.1709 -0.541992 15.1709
s1.625 9.20996 2.70898 21.1299c1.08301 12.4609 0.541992 28.1738 -6.50195 36.3008c-16.2539 18.4209 -29.2568 13.0029 -29.2568 13.0029s-4.33496 -2.70898 -8.12695 -2.16699c-4.33496 0.541992 -8.12695 3.79199 -8.12695 3.79199s-22.2139 13.0039 -47.1367 -2.16699
c-24.3809 -14.6289 -18.9629 -42.2598 -18.9629 -42.2598l-18.9629 13.0029s2.70898 35.2168 34.6748 48.7617c34.1338 14.6289 59.5977 -1.08398 59.5977 -1.08398s26.5488 6.50195 42.2607 -10.8359c5.95996 -7.04297 13.5449 -16.7949 16.2539 -26.5479
c2.70898 -10.8359 1.625 -20.0469 1.08398 -29.2568c-1.08398 -11.9199 -2.16797 -21.6719 -2.16797 -21.6719s3.79297 -11.3779 1.08398 -20.5889c-3.25098 -9.75195 -13.0029 -17.3369 -13.0029 -17.3369s-2.70898 -11.3779 -7.58594 -21.1309
c-5.41797 -10.2939 -12.4609 -18.9629 -12.4609 -18.9629s0 -14.6289 5.95996 -20.0469c10.8359 -9.20996 40.0928 -15.1699 50.9287 -26.0059c12.4619 -11.9199 18.4219 -28.7158 18.4219 -28.7158zM356.504 50.3193c18.4209 -9.75195 25.4639 -24.3809 25.4639 -24.3809
s14.0869 -30.3408 11.9199 -47.6777c-2.70898 -18.4219 -21.6719 -24.3818 -21.6719 -24.3818s-46.0527 -17.3369 -114.861 -17.3369c-76.3936 0 -114.861 17.3369 -114.861 17.3369s-16.7959 5.95996 -21.6719 19.5049c-4.33496 13.5449 2.70898 35.2168 2.70898 35.2168
s8.12695 27.0908 26.5479 38.4678c16.7959 10.8359 47.6787 15.7129 51.4707 21.1309c4.87695 7.58496 1.08398 28.7148 1.08398 28.7148s-4.87598 6.50195 -8.66895 15.1709c-3.79199 9.75195 -7.04297 22.2139 -7.04297 22.2139s-10.2949 8.66797 -13.5449 18.9629
c-3.25098 9.75195 0 21.6719 0 21.6719s-10.2949 39.5508 -1.62598 65.0156c10.8359 30.8828 41.1768 33.5918 41.1768 33.5918s34.6758 33.0498 99.6914 -1.62598c15.1699 -8.12695 25.4648 -28.1729 28.7148 -47.6777c4.33496 -24.9229 -1.625 -49.3037 -1.625 -49.3037
s2.16699 -13.0029 -1.625 -23.8398c-3.79297 -10.2939 -13.5459 -18.4209 -13.5459 -18.4209s-1.08301 -11.9189 -4.87598 -21.6719c-3.25098 -9.21094 -9.75195 -15.7119 -9.75195 -15.7119s-2.70898 -20.0469 1.08301 -27.0898
c2.70898 -4.87695 31.4248 -10.8359 45.5117 -17.8799zM374.925 -21.1982c3.25098 8.12695 -2.70898 23.2979 -2.70898 23.2979s-3.79297 16.7959 -15.7119 25.4648c-7.58496 5.95898 -17.8799 8.66797 -26.0068 11.377s-14.6279 4.87695 -14.6279 4.87695
s-16.2539 4.33398 -21.6719 17.8789c-5.95996 15.7119 -1.08398 40.6348 -1.08398 40.6348s6.50195 5.95996 10.8359 16.2539c3.79297 10.2949 5.95996 25.4648 5.95996 25.4648s9.75195 6.50195 13.0029 14.0869c2.16699 6.50098 -1.625 14.6279 -1.625 14.6279
s7.04297 21.6729 4.87598 42.8027c-2.16699 16.7959 -11.3779 33.0498 -23.2979 40.0928c-54.7217 31.4248 -80.7275 1.08398 -80.7275 1.08398s-22.2139 0.541992 -32.5078 -22.2139c-9.21094 -21.1299 2.70898 -59.0557 2.70898 -59.0557
s-3.79297 -10.8369 -1.08398 -17.3379c3.25098 -7.58496 11.9199 -11.3779 11.9199 -11.3779s2.16699 -15.7119 7.04297 -27.6318c3.79297 -9.75195 9.75293 -15.1699 9.75293 -15.1699s6.50098 -26.5488 0 -42.8027c-5.41797 -13.0029 -23.2979 -16.7959 -23.2979 -16.7959
s-5.41797 -2.70898 -13.0029 -4.87598c-7.58496 -2.70898 -17.3379 -4.87598 -24.9229 -10.2939c-11.3779 -8.12695 -15.7119 -22.2139 -15.7119 -22.2139s-8.12695 -18.4209 -4.87598 -28.1738c2.70898 -7.58496 21.1299 -12.4609 21.1299 -12.4609
s48.2197 -11.3779 97.5234 -10.8359c26.0068 0.541992 51.4707 1.625 70.4336 4.87598c17.8799 2.70898 30.3408 7.58496 30.3408 7.58496s15.1709 5.41797 17.3379 10.8359z" />
    <glyph glyph-name="stats" unicode="&#xf11b;" 
d="M385.219 314.718c63.3906 -63.9326 63.3906 -179.336 -1.625 -243.81c-72.6016 -72.6016 -185.837 -73.1436 -254.104 -4.87598c-70.9756 70.9756 -69.3506 184.211 -1.62598 251.937c70.9756 70.9756 182.045 72.6006 257.354 -3.25098zM266.023 349.935v-139.242
l124.072 59.0557s-18.4219 35.2168 -52.0137 55.8057c-31.4238 19.5049 -72.0586 24.3809 -72.0586 24.3809zM287.695 41.6504c40.0928 9.21094 68.8086 34.1338 68.8086 34.1338l-113.236 114.319v159.831s-14.6289 -0.541992 -34.1328 -6.50195
c-20.5889 -6.50098 -47.6787 -19.5049 -65.5576 -39.0098c-15.1709 -16.2539 -27.6318 -36.8418 -34.6758 -55.8047c-10.8359 -29.2568 -10.2939 -55.8057 -10.2939 -55.8057s-1.08398 -28.1738 11.3779 -58.5137c10.8359 -26.5488 34.1328 -54.1807 60.1396 -70.9766
c40.0928 -26.0059 83.4365 -29.7988 117.57 -21.6719zM372.216 91.4961c0 0 28.1738 26.5488 35.2168 70.9756c8.12695 52.0127 -7.04297 86.6885 -7.04297 86.6885l-126.781 -59.0566z" />
    <glyph glyph-name="clock" unicode="&#xf104;" 
d="M273.066 357.547h0.853516v-157.44s0.853516 -14.0801 -5.12012 -20.4795c-6.39941 -6.82715 -19.626 -5.97363 -19.626 -5.97363h-160.427s-17.4941 0 -17.9209 18.3467c-0.425781 16.6396 17.9209 16.6396 17.9209 16.6396h150.613v148.907s0 19.627 16.6396 19.627
c17.0664 0 17.0664 -19.627 17.0664 -19.627zM449.707 357.974c40.1064 -46.9336 62.293 -106.667 62.293 -165.974c0 -67.4131 -29.4404 -135.68 -79.7871 -184.32c-45.2266 -43.5195 -107.946 -70.8262 -176.213 -70.8262c-69.1201 0 -133.547 26.8799 -179.2 71.6797
c-49.0664 48.6396 -76.7998 117.333 -76.7998 183.467c0 65.2803 28.1602 131.84 75.9463 180.054c45.6533 46.5059 109.228 75.9463 180.054 75.9463c77.2266 0 147.2 -36.2666 193.707 -90.0264zM256 -30.293c77.2266 0 143.787 40.1064 183.04 98.5596
c24.7471 36.2666 38.4004 81.0664 37.9736 123.733c0 56.7471 -24.7471 115.2 -66.5605 156.587c-39.2529 39.2529 -94.293 63.5732 -154.453 63.5732c-61.8662 0 -121.173 -26.0264 -160.854 -67.4131c-39.2529 -41.3867 -58.8799 -97.707 -59.3066 -152.747
c-0.426758 -50.3467 16.2139 -101.547 49.0664 -141.227c40.1074 -48.6406 102.827 -81.0664 171.094 -81.0664z" />
    <glyph glyph-name="geotarget" unicode="&#xf10e;" 
d="M290.946 332.055c-16.2539 60.1396 39.0088 115.945 98.0654 115.945c75.3096 0 111.61 -73.6846 94.2725 -123.53c-19.5039 -58.5146 -79.1025 -122.988 -79.1025 -122.988s-8.12695 -10.8359 -16.7949 -10.8359c-7.58594 0 -15.7129 10.8359 -15.7129 10.8359
s-64.4736 72.0596 -80.7275 130.573zM389.012 397.071c-26.0068 0 -47.6787 -21.1309 -47.6787 -46.5947c0 -24.9229 21.6719 -46.0537 47.6787 -45.5117c26.5479 0 47.6787 20.5889 47.6787 46.0527c0 25.4648 -21.1309 46.0537 -47.6787 46.0537zM490.87 281.668
c0 0 21.6719 -47.1367 21.6719 -101.858c-0.541992 -48.2197 -21.6719 -101.316 -49.3037 -141.409c-27.6318 -40.6357 -73.6846 -70.9756 -116.487 -86.1465c-49.3037 -17.3379 -94.2725 -16.2539 -94.2725 -16.2539s-35.7588 0 -78.0195 14.0869
c-35.2168 11.3779 -74.2266 33.5918 -103.483 62.3066c-26.5479 26.5479 -47.6787 62.3066 -58.5146 94.8145c-17.3369 52.5547 -14.6279 107.818 -3.25 144.661c27.0898 88.8545 98.6074 155.496 198.298 175.001c49.8457 10.2939 86.6885 1.08301 86.6885 1.08301
l-20.0469 -32.5078l-9.21094 4.87598l-0.541992 -93.1895l8.66895 1.08398l9.75293 -18.4209l-17.3379 -2.16699v-94.8154l82.8955 1.62598l17.8789 -18.9629l-101.316 -1.08398v-94.8145s21.6719 -0.541992 43.3438 -4.87695
c20.5889 -4.87598 41.1768 -13.0029 41.1768 -13.0029s12.4619 25.4648 20.0469 52.5547c7.58496 26.5479 9.21094 54.7217 9.21094 54.7217h19.5049s-2.16797 -29.7988 -9.21094 -57.9727c-7.58496 -29.2568 -20.5889 -57.4307 -20.5889 -57.4307
s12.4619 -6.50195 23.8398 -14.0869c10.8359 -6.50098 20.0459 -14.6279 20.0459 -14.6279s31.4248 29.2568 48.7627 66.6406c17.3369 37.3848 21.1299 82.8955 21.1299 82.8955l-70.4336 0.541992l17.3369 18.4209l54.1797 0.541992l-10.8359 55.8047zM245.435 307.674
v92.6475s-22.2139 -14.0859 -40.0928 -32.5078c-19.5049 -19.5049 -34.6748 -44.4268 -34.6748 -44.4268s17.3369 -7.04395 35.7588 -10.8369c18.9629 -3.79199 39.0088 -4.87598 39.0088 -4.87598zM153.871 380.275c-21.6719 -10.2949 -41.7188 -26.0068 -41.7188 -26.0068
s10.8359 -7.58496 21.1299 -13.5449c9.75293 -5.95996 18.9629 -10.2939 18.9629 -10.2939s9.75293 16.7959 22.7559 32.5078c15.7119 18.4209 34.6748 36.3008 34.6748 36.3008s-29.7988 -6.50195 -55.8047 -18.9629zM48.2197 274.624
c-17.3369 -37.3838 -19.5039 -80.7275 -19.5039 -80.7275l82.8945 -0.541992s1.62598 32.5078 9.75293 63.3906c7.58496 29.2568 21.6719 57.4307 21.6719 57.4307l-44.4277 28.1738s-33.0498 -30.8828 -50.3877 -67.7256zM48.2197 93.1221
c17.8799 -38.4678 50.3877 -66.6416 50.3877 -66.6416l43.8857 27.0898s-12.4619 28.7158 -20.5889 59.5977c-7.58496 29.2578 -10.8359 61.2236 -10.8359 61.2236h-82.3525s2.70898 -45.5107 19.5039 -81.2695zM156.038 -13.0713
c26.0068 -11.9189 54.7217 -17.3369 54.7217 -17.3369s-18.4209 14.6279 -33.5918 32.5078c-14.0869 16.2539 -25.4639 35.7588 -25.4639 35.7588l-18.4219 -10.8359c-10.2939 -6.50195 -20.0459 -14.0869 -20.0459 -14.0869s20.5879 -15.7119 42.8018 -26.0068z
M244.894 -33.1172h-0.541992v93.1895s-19.5049 -0.541992 -37.9258 -4.33496c-18.9629 -3.79199 -36.3008 -11.3779 -36.3008 -11.3779s16.2539 -24.9219 34.6748 -44.4268s40.0938 -33.0498 40.0938 -33.0498zM245.977 79.5771v94.8145l-113.777 -0.541992
s0.541992 -26.5479 6.50098 -51.4707c7.58594 -30.8828 21.6719 -60.1396 21.6719 -60.1396s20.5889 6.50195 41.1768 10.8359c22.2139 4.33398 44.4277 6.50195 44.4277 6.50195zM131.115 192.812v-1.08301h114.861l-0.541992 96.4395s-20.5879 0.541992 -41.7178 4.87695
c-21.6719 4.33398 -43.3447 12.4609 -43.3447 12.4609s-13.0029 -24.9229 -20.0459 -52.5547c-7.58496 -28.7148 -9.21094 -60.1396 -9.21094 -60.1396zM265.481 59.5303v-92.6475s24.9229 15.7119 44.4277 36.3008c17.3369 18.4209 30.3408 41.1758 30.3408 41.1758
s-21.6719 8.12695 -41.7188 11.9199c-17.3379 3.79297 -33.0498 3.25098 -33.0498 3.25098zM353.253 -14.6963c23.8389 10.2939 44.9697 28.1738 44.9697 28.1738s-9.21094 7.58496 -20.0469 14.0869c-9.21094 5.41797 -19.5049 9.75195 -19.5049 9.75195
s-10.8359 -18.9629 -25.4648 -35.2168c-15.7119 -17.8799 -34.1328 -32.5078 -34.1328 -32.5078s28.7148 4.33398 54.1797 15.7119z" />
    <glyph glyph-name="dollar2" unicode="&#xf10a;" 
d="M310.451 175.476c14.0859 -11.9199 24.9219 -29.7998 24.3809 -43.8857c-5.41797 -59.0566 -69.8926 -69.8926 -69.8926 -69.8926l-0.541992 -23.2969s0 -10.2949 -10.2939 -9.75293c-11.9189 0.541992 -11.3779 10.8359 -11.3779 10.8359l0.541992 22.7559
s-23.2969 4.87598 -43.3438 14.0869c-16.7959 7.58496 -30.8828 20.0459 -30.8828 20.0459s-5.95996 8.66895 -0.541992 15.1709c5.95996 7.04297 15.7129 0.541992 15.7129 0.541992s10.2939 -9.21094 23.2969 -15.7129
c15.1709 -7.58496 34.1338 -12.4609 34.1338 -12.4609l1.625 99.6914s-33.0498 9.75195 -53.6377 30.3398c-9.75293 10.2949 -15.1709 27.0908 -15.1709 39.0098c0 13.5449 9.21094 36.8428 23.2979 48.7617c18.9629 16.7959 44.9688 20.5889 44.9688 20.5889
l0.541992 23.2969s1.62598 9.21094 9.75293 9.21094c11.377 0 11.9189 -9.75195 11.9189 -9.75195v-23.2979s17.8799 -2.70898 31.9668 -10.8359c14.0859 -8.66895 24.3809 -22.2139 24.3809 -22.2139s7.58496 -11.9189 -2.16797 -17.3369
c-9.20996 -5.41895 -15.7119 4.87598 -15.7119 4.87598s-5.95996 9.75195 -15.7119 15.7119c-9.75293 5.95996 -22.2139 8.12695 -22.2139 8.12695l-1.08398 -100.232s26.0068 -7.58594 46.0537 -24.3809zM243.268 206.357v94.2734s-46.5947 -5.41797 -47.6777 -49.3037
c0 -9.21094 4.87598 -20.0469 13.5449 -27.0898c13.5449 -11.9199 34.1328 -17.8799 34.1328 -17.8799zM264.397 83.9111c0 0 45.5117 0.541992 48.2207 49.8457c1.08301 29.7988 -47.6787 43.8857 -47.6787 43.8857zM255.729 448
c140.325 0 256.271 -117.57 256.271 -255.729c0 -122.446 -100.774 -255.729 -253.562 -255.729c-158.747 0 -258.438 133.282 -258.438 255.729c0 133.825 112.694 255.729 255.729 255.729zM421.52 29.7314c82.8955 87.2295 91.0225 235.683 -7.04297 329.413
c-85.0625 80.7285 -230.265 88.3135 -322.912 -5.41797c-88.3135 -88.3125 -82.8955 -237.308 -4.87695 -318.577c93.7314 -97.5244 246.519 -98.0654 334.832 -5.41797z" />
    <glyph glyph-name="percent" unicode="&#xf115;" 
d="M240.64 213.547c-17.0664 -17.0664 -50.9863 -18.5605 -70.6133 2.98633c-16.8525 18.3467 -13.2266 47.7871 2.9873 63.5732c17.0664 16.8535 47.7861 19.2002 65.4932 0c18.5596 -20.2666 18.1328 -50.5596 2.13281 -66.5596zM190.507 260.693
c-6.61328 -7.67969 -6.61328 -21.7598 2.13281 -29.6533c9.38672 -8.74707 22.8271 -6.18652 29.6533 2.13281c6.1875 7.68066 6.61328 20.4805 -2.13281 28.5869c-8.95996 8.32031 -22.8271 6.82715 -29.6533 -1.06641zM331.733 173.653
c22.1865 -18.5596 23.04 -48.2129 10.2402 -66.5596c-14.0801 -20.2676 -46.9336 -26.8809 -69.5469 -6.1875c-17.2803 16 -18.1338 45.2266 -5.12012 63.5742c14.293 20.0527 46.0801 24.5332 64.4268 9.17285zM321.493 123.307
c5.54688 8.5332 4.2666 21.5469 -4.2666 28.7998c-7.4668 6.40039 -22.3994 5.54688 -29.6533 -2.13281c-6.82617 -7.25391 -6.61328 -21.9736 2.13379 -29.6533c11.5195 -10.0273 25.8125 -6.1875 31.7861 2.98633zM344.106 281.174
c7.4668 -7.4668 1.06738 -18.5605 1.06738 -18.5605l-161.707 -161.707s-9.60059 -7.25293 -17.4932 0c-6.82715 6.40039 -1.06738 17.4941 -1.06738 17.4941l162.773 162.773s10.0273 6.18652 16.4268 0zM492.587 146.986
c-5.54688 -8.31934 -8.5332 -15.5732 -8.5332 -15.5732s-1.06738 -10.0264 0 -22.6133c1.06641 -13.8662 4.05273 -31.1465 -4.05371 -45.0127c-8.74609 -15.1475 -25.3867 -22.8271 -38.8262 -29.6533c-11.5205 -5.97363 -20.4805 -12.374 -20.4805 -12.374
s-4.48047 -7.89355 -9.17285 -18.3467c-5.76074 -12.373 -12.5869 -27.9463 -26.667 -35.8398c-14.9336 -8.5332 -35.4131 -5.97363 -50.1338 -5.12012c-12.1602 0.640625 -20.4795 -1.06641 -20.4795 -1.06641s-7.4668 -4.05371 -15.3604 -9.17383
c-11.3066 -7.46582 -25.5996 -16.6396 -43.0928 -16.4258c-21.334 0.212891 -38.8271 13.8662 -50.1338 21.5459c-5.12012 3.41406 -12.373 5.12012 -12.373 5.12012s-10.0273 0.853516 -18.3467 0c-14.5068 -1.49316 -32.8535 -4.05273 -50.1338 6.18652
c-16 9.60059 -22.8262 28.5869 -28.5869 42.0273c-3.41309 8.10645 -9.17285 14.293 -9.17285 14.293s-10.4531 7.25293 -19.4131 11.3066c-12.7998 5.75977 -26.667 10.667 -35.8398 26.667c-9.17383 16.2129 -5.54688 37.7598 -4.05371 52.2666
c0.853516 8.5332 -1.06641 15.3594 -1.06641 15.3594s-5.12012 8.32031 -10.2402 16.4268c-7.67969 11.7334 -16.4268 26.667 -16.4268 45.0137c0 17.2803 9.81348 31.7871 17.4932 43.0938c5.12012 7.67969 9.17383 15.3594 9.17383 15.3594s0.639648 11.5205 0 25.6006
c-0.640625 13.8662 -2.77344 30.293 5.12012 43.9463c9.59961 16.4268 29.4395 23.6797 43.0928 29.6533c8.74707 3.83984 14.2939 9.17285 14.2939 9.17285s4.47949 6.40039 8.10645 15.3604c5.12012 12.5869 11.5195 30.0801 26.666 38.8271
c16.6406 10.0264 40.5342 7.4668 55.2539 6.18652c7.67969 -0.640625 14.293 1.06641 14.293 1.06641s7.4668 2.13379 15.3604 7.25293c12.373 8.10742 28.1602 20.6934 47.1465 20.4805c16.8535 -0.212891 30.7197 -10.4531 42.0264 -18.3467
c8.95996 -6.18652 17.4932 -10.2402 17.4932 -10.2402s9.38672 -1.28027 20.4805 0c14.0801 1.70703 31.5732 5.12012 46.0801 -2.98633c15.1465 -8.5332 23.2529 -26.667 29.6533 -39.8936c5.12012 -10.667 10.2402 -17.4932 10.2402 -17.4932
s8.5332 -5.75977 18.3467 -10.2402c12.7998 -5.75977 28.373 -11.7334 36.9062 -26.667c10.2402 -17.7061 7.4668 -41.1729 6.18652 -56.3193c-0.639648 -8.74707 1.06738 -15.3604 1.06738 -15.3604s2.77246 -7.67969 8.10645 -15.3594
c7.89355 -11.3066 19.4131 -25.8135 19.4131 -43.0938c0 -17.707 -11.5195 -33.4932 -19.4131 -45.0137zM481.28 192c0 0 0.212891 7.04004 -4.90723 15.1465c-6.18652 9.38672 -18.5596 21.1201 -22.6133 35.8398c-4.2666 15.5732 -1.49316 32 -1.06641 43.9473
c0.212891 9.59961 -2.13281 16.4268 -2.13281 16.4268s-2.13379 5.33301 -9.17383 9.17285c-10.8799 5.75977 -30.0801 12.373 -43.0938 25.6006c-9.8125 10.0264 -14.293 24.96 -19.4131 34.7725c-5.33301 9.81348 -11.3066 14.2939 -11.3066 14.2939
s-7.25293 2.77344 -15.3604 2.13281c-12.1592 -0.852539 -29.0127 -4.47949 -46.0791 0c-14.2939 3.84082 -25.6006 15.3604 -34.7734 21.5469c-8.5332 5.75977 -15.3604 6.18652 -15.3604 6.18652s-6.61328 1.49316 -15.3604 -4.05273
c-9.59961 -5.97363 -21.7598 -19.4141 -36.9062 -23.4668c-15.7871 -4.2666 -33.2803 -0.213867 -46.0801 0c-11.0938 0.212891 -18.3467 -4.05371 -18.3467 -4.05371s-6.18652 -4.69336 -10.2402 -13.2266c-4.90625 -10.2402 -8.74609 -25.1729 -19.4131 -35.8398
c-12.373 -12.373 -29.2266 -16.4268 -39.8936 -21.5469c-7.25293 -3.41309 -11.3066 -10.2402 -11.3066 -10.2402s-2.55957 -7.04004 -2.13281 -17.4932c0.639648 -12.1602 4.05273 -29.0127 0 -43.9463c-3.83984 -14.5068 -15.3604 -24.3203 -21.5469 -33.707
c-5.75977 -8.74609 -6.18652 -17.4932 -6.18652 -17.4932s0.212891 -7.89355 5.12012 -15.3604c6.61328 -9.8125 18.7734 -20.9062 22.6133 -36.9062c3.62598 -15.3604 1.06641 -30.9336 0 -43.0938c-0.853516 -10.2393 0 -18.3467 0 -18.3467
s2.77344 -5.12012 11.3066 -9.17285c10.8799 -5.33301 29.0127 -11.0938 40.96 -22.6133c12.7998 -12.374 17.0664 -30.0801 22.6133 -40.96c4.2666 -8.10645 11.3066 -11.3066 11.3066 -11.3066s7.04004 -1.70703 15.3594 -1.06738
c12.1602 0.853516 29.2275 3.41406 46.0801 -1.06641c16.2139 -4.2666 25.1738 -15.1465 34.7734 -21.5469c7.25391 -4.90625 17.4932 -6.18652 17.4932 -6.18652s8.53418 1.49316 15.3604 6.18652c8.95996 6.1875 18.3467 16.4268 33.707 20.4805
c15.7861 4.2666 33.2803 1.49316 46.0801 1.06641c10.8799 -0.212891 18.3467 2.13379 18.3467 2.13379s6.61328 6.61328 11.3066 16.4268c4.90625 9.8125 7.67969 22.8262 17.4932 32.8525c11.7334 12.1602 27.9463 17.707 38.8262 23.4668
c8.32031 4.48047 13.2275 10.2402 13.2275 10.2402s3.41309 6.40039 2.98633 15.3604c-0.426758 12.5859 -4.2666 30.7197 0 47.1465c4.47949 16.2129 15.3594 26.4531 21.5469 35.8398c5.11914 7.67969 6.18652 16.4268 6.18652 16.4268z" />
    <glyph glyph-name="tracking-link" unicode="&#xf11f;" 
d="M346.034 288.542c0 0 7.59277 4.33887 10.8477 -2.16895c4.33887 -5.42383 1.08398 -11.9326 1.08398 -11.9326l-88.9492 -200.678s-2.16895 -6.50879 -8.67773 -6.50879c-4.33887 0 -7.59277 6.50879 -7.59277 6.50879l-24.9492 84.6104l-84.6104 24.9492
s-6.50879 3.25391 -6.50879 8.67773c0 3.25391 5.42383 7.59277 5.42383 7.59277zM265.763 109.56l64 146.44l-148.61 -60.7461l66.1699 -16.2705zM254.915 448c144.271 0 257.085 -111.729 258.17 -252.746c0 -147.525 -108.475 -260.339 -252.746 -260.339
s-260.339 113.898 -260.339 261.424s124.746 251.661 254.915 251.661zM258.17 -40.1357c124.745 0 228.881 108.475 228.881 232.136s-107.39 231.051 -233.221 231.051c-125.83 0 -229.966 -105.221 -229.966 -229.966c0 -123.661 108.475 -233.221 234.306 -233.221z" />
    <glyph glyph-name="menubars" unicode="&#xf114;" 
d="M0 448h967.68v-33.792h-967.68v33.792zM0 171.52v33.792h967.68v-33.792h-967.68zM0 -64v33.792h967.68v-33.792h-967.68z" />
    <glyph glyph-name="exit" unicode="&#xf10c;" 
d="M249.228 -33.6592c0 0 15.1699 -2.70898 15.1699 -14.0869c0 -15.7119 -15.1699 -15.7119 -15.1699 -15.7119h-165.249s-27.6318 1.08301 -55.8047 24.3809c-28.1738 23.2969 -28.1738 48.2197 -28.1738 48.2197v366.257s1.625 27.0898 26.5479 49.3037
c30.8828 27.0898 57.4307 22.7549 57.4307 22.7549h165.249s15.1699 -1.625 15.1699 -14.0869c0 -15.7119 -15.7119 -15.7119 -15.7119 -15.7119h-148.453s-28.1729 3.25098 -47.1357 -15.7119c-20.5889 -20.0469 -19.5049 -36.3008 -19.5049 -36.3008v-341.333
s-2.16699 -23.2979 17.8789 -39.5518c22.7559 -18.4209 51.4707 -18.4209 51.4707 -18.4209h146.286zM502.248 208.524c0 0 9.75195 -7.04297 9.75195 -16.7949c0 -9.75293 -9.21094 -16.2539 -9.21094 -16.2539l-96.4395 -88.8555s-12.4619 -9.75195 -23.2979 0.541992
c-11.3779 10.8359 -0.541992 22.2139 -0.541992 22.2139l72.0596 66.0996h-321.287s-14.0869 2.16699 -14.0869 16.2539c0 13.5449 14.0869 16.2539 14.0869 16.2539h320.745l-73.6846 67.7246s-7.04297 11.3779 1.08398 19.5049
c10.2939 10.2939 22.7549 3.79199 22.7549 3.79199z" />
    <glyph glyph-name="1h" unicode="&#xf100;" 
d="M496.83 225.862c13.5449 1.62598 15.1699 -10.8359 14.6279 -10.8359v-22.7559s-8.12695 -114.319 -72.0596 -178.793c-102.399 -102.942 -264.397 -104.025 -368.965 1.08301c-94.2725 94.8154 -93.7305 261.147 1.08398 354.337
c121.904 120.279 277.401 58.5146 274.15 59.5977c41.7188 -14.6289 76.9355 -44.4277 76.9355 -44.4277v54.1807s2.16699 7.58496 9.75195 9.75195h7.04297c7.04395 -2.16699 8.66895 -9.21094 8.66895 -9.21094v-86.1455s-0.541992 -7.04395 -3.79199 -10.8359
c-3.25098 -3.79297 -9.21094 -4.33496 -9.21094 -4.33496h-89.3965s-9.21094 0 -9.21094 12.4619c0 10.2939 9.21094 12.4609 9.21094 12.4609l59.0557 1.08398s-31.4238 27.0898 -68.8086 40.6348c2.16797 -1.08398 -132.74 56.8887 -247.06 -55.8057
c-79.6445 -79.6445 -81.2705 -232.432 -1.62598 -313.159c95.8984 -96.4404 241.101 -96.4404 336.999 -0.541992c56.8887 56.3467 61.2236 157.122 61.2236 157.122v20.0459s0 13.0039 11.3779 14.0869zM255.729 111.001
c-14.6289 -1.08398 -14.6289 11.9199 -14.6289 11.9199v106.192l-36.8428 -21.6719s-10.2939 0 -13.5449 7.58496c-3.25 8.66895 4.33496 14.0869 4.33496 14.0869l49.8457 40.6348s5.95898 7.04395 13.5449 7.04395c9.20996 0 11.377 -7.58594 11.377 -7.58594v-145.202
s-0.541016 -12.4609 -14.0859 -13.0029z" />
    <glyph glyph-name="play" unicode="&#xf117;" 
d="M306.116 268.664c7.58496 0 8.66895 -5.41797 8.66895 -5.41797v-141.409s0 -6.50098 -8.66895 -6.50098c-8.12695 0 -8.12695 6.50098 -8.12695 6.50098v54.7217l-91.0225 -56.8887s-4.87598 -3.25098 -10.2939 -1.625
c-4.33398 1.08301 -4.33398 5.95898 -4.33398 5.95898v135.992s0 4.33398 4.33398 7.04297c4.33496 2.70898 10.2939 0 10.2939 0l91.0225 -59.5977v55.8047s1.62598 5.41797 8.12695 5.41797zM381.968 316.885c68.2676 -69.3506 66.6416 -180.961 -0.541016 -247.603
c-69.8926 -69.8916 -179.878 -73.6846 -256.813 2.16797c-62.8486 62.3066 -66.0986 177.168 4.33496 247.602c71.5176 70.9756 183.128 68.8086 253.02 -2.16699zM361.922 81.7441c61.7646 62.3066 63.9316 158.205 2.70898 221.054
c-57.9727 59.0557 -157.664 62.3066 -219.429 0.541992c-61.7646 -61.7656 -55.2637 -162.54 -4.33398 -215.095c67.1826 -69.3496 166.332 -60.6807 221.054 -6.50098z" />
    <glyph glyph-name="description" unicode="&#xf108;" 
d="M315.661 94.373c8.67773 0 16.2715 -7.59375 16.2715 -16.2715s-7.59375 -16.2715 -16.2715 -16.2715h-120.407c-8.67773 0 -16.2705 7.59375 -16.2705 16.2715s7.59277 16.2715 16.2705 16.2715h120.407zM452.339 304.813l-1.08496 -310.237
s-2.16895 -22.7793 -18.4404 -42.3047c-8.67773 -9.7627 -20.6104 -15.1865 -28.2031 -17.3564h-295.051c-8.67773 2.16992 -21.6953 7.59375 -32.543 18.4404c-16.2705 15.1865 -16.2705 37.9668 -16.2705 37.9668v398.102s0 21.6953 15.1865 37.9658
c18.4404 20.6104 40.1348 20.6104 40.1348 20.6104h192s10.8477 0 20.6104 -4.33887c6.50879 -3.25391 11.9326 -10.8477 11.9326 -10.8477l99.7969 -103.051s5.42285 -4.33887 8.67773 -9.7627c3.25391 -6.50879 3.25391 -15.1865 3.25391 -15.1865zM334.102 393.763
v-67.2539h65.085zM412.203 -26.0342c9.7627 9.7627 8.67773 26.0342 9.7627 24.9492v297.221h-100.881s-9.7627 0 -14.1016 4.33887c-4.33887 5.42383 -4.33887 15.1865 -4.33887 15.1865v10.8477v90.0332h-182.237s-13.0176 0 -22.7803 -11.9316
c-8.67773 -11.9326 -8.67773 -26.0342 -8.67773 -26.0342v-376.406s0 -17.3564 8.67773 -26.0342c10.8477 -10.8477 28.2031 -10.8477 28.2031 -10.8477h261.424s15.1865 -2.16992 24.9492 8.67773zM347.119 158.373c8.67773 0 16.2705 -6.50879 16.2705 -16.2715
c0 -8.67773 -7.59277 -16.2715 -16.2705 -16.2715h-183.322c-8.67773 0 -16.2715 7.59375 -16.2715 16.2715s7.59375 16.2715 16.2715 16.2715h183.322zM347.119 223.458c8.67773 0 16.2705 -7.59375 16.2705 -16.2715s-7.59277 -16.2715 -16.2705 -16.2715h-185.492
c-8.67773 0 -16.2715 7.59375 -16.2715 16.2715s7.59375 16.2715 16.2715 16.2715h185.492z" />
    <glyph glyph-name="faq" unicode="&#xf10d;" 
d="M329.813 305.707c7.67969 -9.38672 14.293 -21.9736 16.6396 -35.8408c1.91992 -13.2266 1.06641 -29.0127 -2.98633 -40.96c-5.12012 -15.3594 -14.293 -25.5996 -14.293 -25.5996s-10.667 -11.0938 -22.6143 -22.6133
c-9.17285 -8.95996 -18.7725 -17.0664 -25.5996 -27.7334c-4.69336 -7.67969 -4.90625 -16 -5.12012 -22.6133c-0.212891 -7.04004 0 -12.373 0 -12.373s0.853516 -5.33398 -1.06641 -8.10742c-1.70703 -2.77246 -6.18652 -2.98633 -6.18652 -2.98633h-25.6006
s-4.05273 0 -6.18652 2.13379c-2.13281 1.91992 -2.13281 6.18652 -2.13281 6.18652s-0.213867 7.67969 0 18.3467c0.212891 8.74609 0 19.4131 5.12012 29.6533c5.33301 11.0928 15.1465 18.9863 23.4658 26.666c9.17383 8.53418 16.4268 16.4268 16.4268 16.4268
s21.7607 18.3467 25.6006 40.96c2.55957 15.3604 -8.5332 35.627 -16.4268 42.0273c-11.7334 9.59961 -35.2002 14.293 -52.2666 6.18652c-18.3467 -8.74707 -26.667 -33.707 -26.667 -33.707s-1.49316 -5.75977 -2.98633 -7.25293
c-2.77344 -2.56055 -9.17383 -2.13379 -9.17383 -2.13379l-23.4668 2.13379s-5.5459 -0.853516 -7.25293 2.98633c-1.91992 4.05371 0 12.373 0 12.373s3.41309 16.4268 15.3604 31.7871c9.38672 11.9463 25.3867 22.8271 40.96 28.5869
c20.2666 7.4668 45.4395 6.61328 63.5732 2.13281c14.5068 -3.62598 24.5332 -10.2393 24.5332 -10.2393s9.59961 -5.97363 18.3467 -16.4268zM256 78.293c10.667 -0.426758 21.5469 -10.4531 21.5469 -22.6133c0 -13.0127 -9.81348 -23.4668 -21.5469 -23.4668
c-13.6533 0 -23.4668 10.0273 -23.4668 23.4668c0 13.4404 11.7334 23.2539 23.4668 22.6133zM434.134 376.32c104.533 -104.533 100.479 -267.307 8.10645 -359.467c-107.733 -107.947 -266.88 -105.813 -366.507 -6.18652c-100.267 100.267 -101.76 261.76 0 363.52
c98.3467 98.3467 262.826 97.707 358.4 2.13379zM416.854 36.4805c84.2666 84.4795 85.1201 226.346 -1.06641 312.106c-89.6006 89.3867 -230.4 88.96 -318.507 1.06641c-87.4668 -87.2529 -86.1865 -229.12 -2.9873 -312.106
c93.2266 -93.6533 230.613 -93.2266 322.561 -1.06641z" />
    <glyph glyph-name="phone" unicode="&#xf116;" 
d="M371.2 126.208c30.7197 3.07227 113.408 -60.6719 112.64 -87.8076c-0.255859 -15.3604 -21.248 -31.4883 -47.1035 -50.1768c-30.7207 -22.2715 -71.4248 -40.1914 -125.696 -27.6475c-70.9121 16.3838 -156.16 85.5039 -201.729 143.104
c-39.168 49.6641 -80.6396 103.424 -81.1514 178.177c-0.511719 52.4795 25.3438 90.624 47.1035 112.64c24.0645 24.832 44.5439 30.9756 55.04 30.208c20.7363 -1.79199 39.4238 -27.3916 49.6641 -40.1924c11.5205 -14.0801 32 -48.1279 28.9287 -70.1436
c-4.09668 -27.9043 -34.0488 -42.4961 -34.0488 -42.4961s-30.4639 -13.0557 -31.4873 -37.6318c-1.02441 -26.8799 28.1592 -66.3047 47.1035 -87.8086c18.6885 -21.248 58.8799 -61.1836 86.5283 -67.8398c31.4883 -7.67969 49.6641 19.9678 49.6641 19.9678
s19.7119 25.0889 44.5439 27.6484z" />
    <glyph glyph-name="user" unicode="&#xf120;" 
d="M512 -30.9502c0 0 1.08398 -13.5449 -9.75195 -23.2979c-8.66895 -9.20996 -19.5049 -9.20996 -19.5049 -9.20996h-455.111s-11.3779 -0.541992 -20.0469 10.2939c-7.58496 9.75195 -7.58496 22.2139 -7.58496 22.2139v56.3467s0 9.75293 8.12695 19.5049
c5.95996 7.04395 17.3379 9.75293 17.3379 9.75293s55.2637 21.6719 98.0654 42.2598c32.5078 15.1709 55.2637 31.4248 55.2637 31.4248s4.33398 3.79199 5.95996 9.20996c2.16699 7.58594 0.541016 17.8799 0.541016 17.8799s-23.2969 22.2139 -33.5908 61.2236
c-10.8359 41.7178 -17.3379 114.319 -5.41797 161.456c5.95898 24.3809 26.5479 47.6777 51.4707 58.5137c28.7148 12.4619 61.2227 11.3779 61.2227 11.3779s32.5088 0 59.5986 -13.5449c24.3809 -12.4609 42.8018 -37.3838 47.1357 -56.3467
c10.8359 -46.0537 5.41797 -120.28 -4.87598 -160.373c-10.2939 -41.1768 -34.1328 -62.3066 -34.1328 -62.3066s-0.541992 -11.3779 1.08301 -18.9629c1.08398 -4.33496 5.41797 -7.58496 5.41797 -7.58496s21.1309 -15.7129 49.8457 -29.2578
c44.4277 -21.6719 104.025 -44.9688 104.025 -44.9688s11.3779 -2.70898 17.8799 -10.2949c5.95898 -7.04297 7.04297 -18.9629 7.04297 -18.9629v-56.3467zM490.87 21.6045c0 0 0 4.87598 -2.16797 7.58496c-2.16699 2.70898 -5.95898 4.33398 -5.95898 4.33398
s-69.3506 26.0068 -119.196 52.5547c-17.8789 9.21094 -33.5918 18.9629 -42.8018 26.5488c-8.12695 7.04297 -11.3779 12.4609 -11.3779 12.4609s-1.625 2.16699 -2.70898 4.33398c-1.08398 2.16797 -1.625 4.87695 -1.625 4.87695v23.2969s0 2.70898 1.08301 4.87598
c0.541992 2.16797 1.62598 3.79297 1.62598 3.79297s29.2568 29.2568 36.8418 75.3096c6.50195 37.9268 5.95996 83.4375 3.79297 111.069c-1.08398 15.1699 -4.33496 24.9229 -4.33496 24.9229s-7.04297 20.5879 -25.4639 33.5918
c-16.2539 11.377 -42.8027 15.1699 -63.9326 15.1699c-20.5879 0 -47.1367 -4.87598 -63.3906 -16.2539c-17.8789 -12.4609 -24.3809 -31.9658 -24.3809 -31.9658s-2.70898 -9.75293 -4.33398 -23.8398c-2.70898 -27.0898 -3.25098 -73.1426 4.33398 -113.235
c9.21094 -48.7627 36.3008 -73.1436 36.3008 -73.1436s1.625 -2.16699 2.70898 -4.33398c1.08301 -2.16699 1.08301 -4.87598 1.08301 -4.87598v-24.3809s-0.541016 -2.16797 -1.08301 -4.33496s-2.16699 -4.33398 -2.16699 -4.33398s-14.0869 -18.4209 -44.9697 -34.6748
c-50.9287 -26.5488 -128.406 -56.3477 -128.406 -56.3477s-4.33496 -1.625 -6.50195 -4.87598s-2.70898 -7.58496 -2.70898 -7.58496l-0.541992 -53.0967s0 -6.50195 2.70898 -9.21094c3.79297 -3.25 10.2949 -2.70898 10.2949 -2.70898h446.442s3.79199 0 7.04297 3.25098
c3.25098 2.70898 3.25098 8.66895 3.25098 8.66895z" />
    <glyph glyph-name="mail" unicode="&#xf113;" 
d="M506.88 33.2803l-155.392 156.16l152.832 156.159zM254.72 148.48c-16.3838 -0.512695 -56.3193 44.7998 -104.191 94.7197c-57.3447 59.6475 -122.368 125.439 -122.368 125.439h453.376s-46.8486 -54.2715 -101.888 -107.52
c-57.6006 -55.5518 -106.496 -112.128 -124.929 -112.64zM254.72 115.2c36.8643 -1.28027 73.9844 51.2002 73.7285 51.2002l155.392 -156.16h-460.8l157.696 156.16s35.8398 -49.9199 73.9834 -51.2002zM5.12012 345.6l152.832 -156.159l-152.832 -156.16v312.319z" />
    <glyph glyph-name="rocket-top" unicode="&#xf119;" 
d="M261.547 246.826c12.373 15.5742 34.5596 19.4141 49.2803 9.17383c15.5732 -10.667 23.04 -35.8398 10.2393 -52.2666c-14.293 -18.1338 -41.5996 -18.7734 -56.5332 -6.18652c-13.0137 11.0928 -15.5732 33.2793 -2.98633 49.2793zM309.974 209.92
c8.74609 11.3066 5.5459 27.7334 -5.12012 34.9863c-9.60059 6.40039 -26.0273 4.90723 -33.9199 -5.11914c-7.89355 -10.2402 -6.61328 -25.3867 2.13281 -32.8535c9.81348 -8.5332 27.9473 -8.32031 36.9072 2.98633zM506.88 444.8
c4.69336 -3.62598 4.90723 -12.1602 4.90723 -12.1602s0 -87.6797 -53.334 -173.227c-46.7197 -74.666 -124.16 -136.319 -124.16 -136.319s18.5605 -62.5068 -10.2393 -101.547c-36.6934 -50.1338 -138.454 -82.1338 -138.454 -82.1338
s-11.9463 -6.61328 -19.4131 -1.06641c-5.75977 4.05371 -4.05273 13.2266 -4.05273 13.2266l22.3994 72.96l-90.2402 86.1865l-78.9326 -26.666s-9.17383 -1.70703 -13.4404 2.98633c-4.05371 4.47949 -1.06641 14.293 -1.06641 14.293s27.5195 98.9873 78.0801 142.507
c39.2529 33.707 102.826 15.1465 102.826 15.1465s65.4932 86.4004 144.641 134.4c76.1602 46.293 166.187 54.4004 166.187 54.4004s9.17285 1.06641 14.293 -2.9873zM89.1738 136.106l75.0928 101.547s-49.2803 9.17285 -73.1729 -15.3604
c-35.2002 -36.2666 -58.4541 -105.6 -58.4541 -105.6zM303.787 36.6934c17.7061 19.8398 9.17285 66.5596 9.17285 66.7734l-100.479 -77.0137l-18.5605 -57.3867s75.7334 29.4404 109.867 67.627zM423.68 251.946c55.8936 72.96 61.6533 169.387 61.6533 169.387
s-93.2266 -2.98633 -183.68 -74.8799c-95.1465 -75.7334 -187.733 -220.587 -187.733 -220.587l84.0537 -80s27.5195 21.5469 64.6396 51.2002c48.6396 38.8271 114.347 93.8672 161.066 154.88zM381.653 265.387c-14.7197 -17.4932 -41.3867 -17.4932 -55.4668 -4.05371
c-12.5869 11.9473 -14.293 35.627 -1.06641 51.2002c12.373 14.5068 36.2666 15.3604 50.3467 4.05371c14.5068 -11.7334 18.9863 -36.2666 6.18652 -51.2002zM333.44 302.293c-8.10742 -9.8125 -6.61328 -24.1064 1.06641 -31.7861
c9.17285 -9.17383 26.2402 -10.4531 35.8398 1.06641c9.59961 11.3066 7.04004 28.373 -2.98633 35.8398c-9.38672 7.04004 -25.3867 5.12012 -33.9199 -5.12012zM443.307 327.894c-15.1465 -17.4932 -42.2402 -17.2803 -56.3203 -4.2666
c-12.373 11.5195 -14.0801 34.1328 -1.06641 49.2793c13.0137 15.1475 34.9863 16.8535 49.2803 6.1875c14.7197 -11.0938 21.5469 -35.627 8.10645 -51.2002zM394.026 363.733c-7.89258 -9.59961 -6.39941 -25.3867 2.13379 -32.6396
c9.81348 -8.53418 27.9463 -7.04004 36.9062 4.05273c9.38672 11.5205 4.69336 27.9473 -6.18652 34.7734c-9.59961 5.97363 -24.5332 4.05371 -32.8535 -6.18652z" />
    <glyph glyph-name="aso" unicode="&#xf102;" 
d="M94.293 187.733c10.0273 -8.5332 10.0273 -22.4004 9.81348 -22.4004v-181.333s-0.426758 -12.7998 -8.95996 -21.333c-8.10645 -8.10742 -21.333 -8.10742 -21.333 -8.10742h-44.5869s-13.2266 0 -21.9736 8.10742c-8.74609 8.10645 -7.25293 21.333 -7.25293 21.333
v181.333s-0.426758 14.5068 7.25293 21.5469c8.95996 8.32031 21.9736 8.32031 21.9736 8.32031h44.5869s13.0137 -0.853516 20.4795 -7.4668zM73.8135 -16v181.333h-44.5869v-181.333h44.5869zM502.827 127.36c7.25293 -7.4668 9.17285 -22.1875 9.17285 -22.4004v-121.173
s-1.28027 -13.4404 -8.10645 -20.2676c-7.68066 -7.67969 -21.1201 -9.17285 -21.1201 -9.17285h-46.293s-13.2275 0.639648 -20.6934 8.10645c-7.25391 7.25391 -8.74707 21.334 -8.74707 21.334v121.173s1.49316 13.8662 8.74707 21.333
c7.46582 7.68066 20.6934 8.95996 20.6934 8.95996h46.293s12.7998 -0.426758 20.0537 -7.89258zM482.773 -16v121.173h-46.293v-121.173h46.293zM346.24 286.08c0 0 12.7998 -0.639648 20.0527 -8.32031c7.68066 -7.67969 10.0273 -22.3994 10.0273 -22.3994v-271.573
s-1.49316 -14.0801 -8.95996 -21.334c-7.68066 -7.4668 -21.334 -8.10645 -21.334 -8.10645h-45.6533s-14.293 1.70703 -21.9727 9.17285c-7.25391 7.25391 -7.89355 20.2676 -7.89355 20.2676v271.573s1.49316 13.6533 8.95996 21.333
c7.67969 7.67969 21.1201 9.38672 21.1201 9.38672h45.6533zM346.24 -16v271.36h-45.6533v-271.36h45.6533zM209.92 435.413c0 0 14.7197 0.213867 22.1865 -6.82617c7.4668 -7.25391 8.10645 -21.9736 8.10645 -21.9736v-422.4s-2.13281 -14.9326 -10.0264 -22.3994
c-7.4668 -7.25391 -20.4795 -7.25391 -20.4795 -7.25391h-45.6533s-14.0801 0.426758 -21.7607 8.10742c-7.25293 7.25293 -8.10645 21.333 -8.10645 21.333v422.826s0.640625 13.2275 8.10645 20.4805c7.4668 7.04004 21.5469 8.10645 21.5469 8.10645h46.0801z
M210.347 -16v422.4h-46.0801v-422.4h46.0801z" />
    <glyph glyph-name="info" unicode="&#xf112;" 
d="M255.729 264.33c9.20996 0 11.9189 -9.21094 11.9189 -9.21094v-211.843s-2.70898 -9.75293 -11.9189 -9.75293c-9.21094 0 -11.3779 9.75293 -11.3779 9.75293v211.843s2.16699 9.21094 11.3779 9.21094zM255.729 341.266c11.377 0 20.0459 -9.21094 19.5039 -19.5049
c0 -9.75195 -8.66797 -20.0469 -19.5039 -20.0469c-11.3779 0 -20.0469 10.2949 -20.0469 20.0469c0 9.75293 8.66895 19.5049 20.0469 19.5049zM436.148 373.231c101.316 -100.774 98.0654 -264.397 8.12695 -355.962
c-107.818 -109.443 -269.816 -105.65 -371.133 -4.87598c-98.6074 98.6074 -94.8145 260.605 -4.33398 353.795c106.734 109.985 268.19 105.65 367.34 7.04297zM418.811 26.4805c95.3564 91.5645 83.9785 242.726 15.1699 314.785
c-53.6377 56.3467 -115.402 81.8115 -178.251 81.8115c-62.3076 0 -125.156 -24.9229 -177.169 -81.8115c-70.9756 -76.9355 -75.3096 -221.054 7.58594 -307.2c93.7305 -97.5234 244.351 -92.1055 332.664 -7.58496z" />
    <glyph glyph-name="target" unicode="&#xf11e;" 
d="M510.72 378.026c3.62695 -8.95996 -1.91992 -16.2129 -2.13281 -16.4268l-106.667 -105.6s-1.91992 -2.34668 -5.12012 -4.05371c-2.98633 -1.49316 -7.25293 -2.13281 -7.25293 -2.13281h-56.3203l-37.9736 -39.04s20.9072 -29.8672 22.6133 -65.4932
c1.49414 -33.2803 -12.373 -66.3467 -36.9062 -89.1738c-19.627 -18.3467 -55.2529 -34.7734 -98.3467 -26.667c-42.0264 7.89355 -63.5732 36.9072 -63.5732 36.9072s-17.707 16.6396 -24.5332 46.0801c-7.4668 31.7861 -2.9873 77.2266 26.666 106.667
c74.2402 73.5996 152.747 12.373 152.747 12.373l39.04 37.9736l-1.06641 53.333s0.212891 4.05273 2.13281 8.10645c1.70703 3.62695 5.12012 7.25391 5.12012 7.25391l103.467 104.533s6.18652 6.39941 14.293 5.12012c10.667 -1.70703 11.3066 -10.2402 11.3066 -10.2402
l1.06738 -52.2666h48.2129s10.2402 0.426758 13.2266 -7.25391zM288.427 135.253c2.34668 26.2402 -15.3604 54.1875 -15.5732 54.1865l-45.0137 -46.0791s2.13379 -16 -10.2402 -22.6133c-16.4258 -8.74707 -29.4395 -0.640625 -33.9199 9.17285
c-3.62598 7.89355 -2.77344 16.2129 2.13379 23.6797c7.89355 11.7334 21.5469 10.2402 21.5469 10.2402l46.0801 46.0801s-26.0273 20.9062 -62.5068 15.3604c-41.1738 -5.97363 -70.8271 -47.3604 -69.7607 -87.04c1.06738 -34.5605 29.4404 -80.2139 81.0674 -81.9199
c50.1328 -1.70703 82.5596 40.96 86.1865 78.9326zM340.693 319.787v-22.6133l80 80v23.6797zM383.787 277.76l78.9326 80l-22.6133 -1.06641l-78.9326 -78.9336h22.6133zM373.547 227.413c10.2402 5.54688 18.1328 -5.12012 18.1328 -5.12012
s68.4805 -137.6 -66.5596 -247.04c-54.4004 -44.1592 -131.2 -46.293 -184.533 -29.6533c-52.2666 16.2139 -81.9199 51.2002 -81.9199 51.2002s-43.5205 41.6006 -55.2539 105.601c-12.1602 66.9863 10.2402 120.533 34.7734 156.8
c27.5205 40.3193 76.373 75.7334 135.254 85.1201c57.3867 9.17285 111.786 -14.2939 111.786 -14.2939s12.373 -6.82617 6.18652 -20.4795c-4.47949 -9.81348 -16.4268 -7.25391 -16.4268 -7.25391s-45.6533 19.627 -94.293 13.2266
c-46.5068 -6.18652 -95.7871 -37.5459 -119.894 -73.8125c-21.7598 -32.4268 -38.6133 -74.8809 -26.666 -141.44c8.5332 -47.7861 49.0664 -85.1201 49.0664 -85.1201s33.9199 -38.1865 91.3066 -47.1465c63.1465 -9.81348 106.88 11.9463 138.453 35.8398
c30.7197 23.04 59.9463 67.8398 65.707 111.787c6.39941 48.6396 -11.3066 94.293 -11.3066 94.293s-4.48047 11.9463 6.18652 17.4932z" />
    <glyph glyph-name="success" unicode="&#xf11c;" 
d="M430.08 380.373c110.507 -110.507 104.106 -270.507 11.3066 -363.307c-107.52 -107.52 -264.747 -106.88 -366.507 -5.12012c-98.9863 98.9873 -99.8398 261.761 -2.13281 359.254c102.399 102.399 267.307 99.2002 357.333 9.17285zM415.787 34.3467
c86.3994 86.6133 88.96 225.707 -10.2402 324.479c-75.9473 75.7334 -219.094 79.7871 -311.254 -12.1592c-83.626 -83.2002 -82.1328 -226.987 -3.19922 -306.134c96.8525 -97.0664 234.88 -96.2129 324.693 -6.18652zM409.6 283.094
c14.7207 -14.0801 0 -27.5205 0 -27.5205l-153.6 -152.533s-5.75977 -6.61328 -17.4932 -6.18652c-9.60059 0.426758 -16.4268 7.25293 -16.4268 7.25293l-90.0264 90.0273s-10.4541 13.4395 1.06641 24.5332c11.7334 11.3066 24.5332 1.06641 24.5332 1.06641
l81.9199 -82.1338l145.493 144.427s12.8008 12.374 24.5332 1.06738z" />
    <glyph glyph-name="edit" unicode="&#xf10b;" 
d="M173.917 155.429l103.484 102.941l38.4678 -38.4678l-101.858 -103.483l-38.4678 -8.66895s-5.41797 -1.625 -7.58496 0.541992c-2.16797 1.62598 -0.541992 7.58496 -0.541992 7.58496zM331.581 277.875c22.7559 -18.4209 3.25098 -38.4678 3.25098 -38.4678
l-10.2949 -9.75195l-37.3838 37.9258l8.66895 8.66895s16.2539 17.8789 35.7588 1.625zM379.801 319.052c70.9756 -72.0596 69.8926 -182.044 3.25098 -248.686c-70.9756 -70.9756 -184.753 -75.8516 -258.438 0.541992c-62.3066 63.9316 -67.1826 177.168 1.08398 245.977
c75.3105 75.3096 186.379 70.9756 254.104 2.16699zM364.631 82.8271c59.0557 59.0566 62.3066 157.122 -2.16699 222.68c-55.2637 56.3467 -155.497 60.1396 -220.513 -4.87598c-57.9727 -58.5146 -55.2637 -160.914 -1.625 -213.469
c68.2666 -67.1836 164.707 -63.3906 224.305 -4.33496z" />
    <glyph glyph-name="days" unicode="&#xf106;" 
d="M504.407 -42.3047c0 0 0 -8.67871 -4.33984 -15.1865c-5.42285 -6.50879 -16.2705 -7.59375 -16.2705 -7.59375h-453.424s-9.7627 0 -16.2715 7.59375c-5.42383 6.50781 -5.42383 15.1865 -5.42383 15.1865v427.39s0 8.67773 6.50879 15.1865
c7.59277 7.59277 15.1865 5.42383 15.1865 5.42383h65.085v21.6943s0 9.7627 5.42383 15.1865c2.16895 3.25391 6.50781 4.33887 11.9316 3.25391h32.542c3.25488 0 6.50879 -2.16895 8.67871 -4.33887c6.50781 -6.50781 6.50781 -15.1865 6.50781 -15.1865v-21.6943
h195.255v21.6943s0 9.7627 5.42383 15.1865c3.25391 3.25488 6.50781 4.33887 9.7627 5.42383h32.542c2.16992 -1.08496 5.42383 -3.25391 8.67773 -5.42383c7.59375 -6.50781 7.59375 -15.1865 7.59375 -15.1865v-21.6943h64s9.7627 1.08496 14.1016 -4.33887
c6.50879 -6.50879 6.50879 -15.1865 6.50879 -15.1865v-427.39zM375.322 427.39v-62.915h22.7793v62.915h-22.7793zM117.152 427.39v-62.915h20.6104v62.915h-20.6104zM483.797 -42.3047h-1.08496v330.847h-453.424v-330.847h454.509zM483.797 310.237v75.9326h-64v-21.6953
s0 -9.7627 -6.50879 -16.2715c-4.33887 -6.50781 -15.1865 -6.50781 -15.1865 -6.50781h-22.7793s-9.7627 0 -16.2715 6.50781c-7.59277 7.59375 -5.42383 16.2715 -5.42383 16.2715v21.6953h-195.254v-21.6953s1.08496 -9.7627 -5.42383 -16.2715
c-6.50879 -6.50781 -16.2715 -6.50781 -16.2715 -6.50781h-20.6104s-10.8467 1.08398 -16.2705 6.50781s-5.42383 16.2715 -5.42383 16.2715v21.6953h-65.085v-75.9326h454.509zM418.712 246.237h1.08496v-247.322h-324.339v247.322h323.254zM171.39 20.6104v54.2373
h-54.2373v-54.2373h54.2373zM171.39 95.458v54.2373h-54.2373v-54.2373h54.2373zM171.39 171.39v53.1523h-54.2373v-53.1523h54.2373zM244.067 20.6104v54.2373h-52.0674v-54.2373h52.0674zM244.067 95.458v54.2373h-52.0674v-54.2373h52.0674zM244.067 171.39v53.1523
h-52.0674v-53.1523h52.0674zM321.085 20.6104v54.2373h-54.2373v-54.2373h54.2373zM321.085 95.458v54.2373h-54.2373v-54.2373h54.2373zM321.085 171.39v53.1523h-54.2373v-53.1523h54.2373zM398.102 20.6104v54.2373h-54.2373v-54.2373h54.2373zM398.102 95.458v54.2373
h-54.2373v-54.2373h54.2373zM398.102 171.39v53.1523h-54.2373v-53.1523h54.2373z" />
    <glyph glyph-name="globus" unicode="&#xf10f;" 
d="M436.689 372.689c100.775 -100.774 99.6914 -261.146 0.541992 -359.754c-102.399 -101.858 -261.146 -101.858 -362.463 -0.541992c-99.1494 99.1494 -100.775 259.521 1.08301 361.38c98.6074 99.1494 260.605 99.1494 360.838 -1.08398zM126.781 379.191
c-20.5889 -14.0869 -37.9258 -31.9658 -37.9258 -32.5078l37.9258 -8.66895s10.8359 19.5049 21.6719 35.7588c10.8359 15.7119 20.5879 28.7158 20.5879 28.7158s-22.7549 -9.75293 -42.2598 -23.2979zM41.1768 267.039
c-11.3779 -31.4238 -11.9199 -65.0156 -11.9199 -65.0156h70.4346s0 30.3408 4.87598 59.5977c4.87598 28.7158 15.1699 56.3477 15.1699 56.3477l-44.9688 11.9189s-21.6719 -30.3408 -33.5918 -62.8486zM41.7188 114.794
c11.3779 -31.4248 33.0498 -58.5146 33.0498 -58.5146s13.5449 4.33398 24.9229 7.04297c10.8359 2.70996 20.0459 3.79297 20.0459 3.79297s-10.8359 27.6318 -15.7119 56.3477c-4.87598 28.1729 -4.33398 57.9717 -4.33398 57.9717h-70.4346
s1.08398 -35.7588 12.4619 -66.6406zM122.988 7.51758c20.5889 -14.6289 46.0527 -26.0068 46.0527 -26.0068s-14.0869 17.3379 -25.4639 35.2178c-9.75293 15.1699 -16.7959 31.4238 -16.7959 31.4238l-37.9258 -9.75195s15.1699 -17.3379 34.1328 -30.8828z
M245.977 -35.2842v95.3564s-43.3438 -1.08398 -72.0596 -3.79297c-15.1699 -1.08398 -25.4639 -4.87598 -25.4639 -4.87598s18.9629 -40.0928 46.5947 -64.4746c20.0459 -17.8789 50.9287 -22.2129 50.9287 -22.2129zM245.977 81.2021v99.6914h-126.239
s1.62598 -36.3008 7.04395 -65.5576c4.87598 -24.9229 13.5449 -43.8857 13.5449 -43.8857s21.1299 3.25 46.0527 5.41797c28.1738 2.70898 59.5977 4.33398 59.5977 4.33398zM245.977 202.023h-0.541992v103.483s-30.3408 1.08398 -58.5137 3.79297
c-24.3809 2.16699 -47.1367 5.95996 -47.1367 5.95996s-10.8359 -30.3408 -16.2539 -59.5986c-4.87598 -27.0898 -3.79297 -53.6377 -3.79297 -53.6377h126.239zM245.977 325.554v94.8145s-29.7988 -4.87598 -51.4707 -23.8389
c-27.0898 -23.2979 -46.0527 -62.3066 -46.0527 -62.3066s20.0459 -3.79297 41.7188 -5.95996c26.5479 -2.70898 55.8047 -2.70898 55.8047 -2.70898zM468.114 274.083c-10.8359 30.3398 -31.4248 55.8047 -30.8828 56.3467l-43.8857 -11.9199
s8.66895 -24.9229 13.5449 -52.5547c5.41797 -30.8818 6.50195 -63.9316 6.50195 -63.9316h69.8926s-3.25098 38.4678 -15.1709 72.0596zM384.678 379.191c-19.5049 14.0869 -41.7188 23.2979 -41.7188 23.2979s10.2939 -13.0039 20.5879 -28.7158
c10.2939 -16.2539 21.1309 -35.7588 21.1309 -35.7588l37.3838 8.66895s-17.8799 18.4209 -37.3838 32.5078zM267.106 420.368v-94.2725s27.0908 0.541016 51.4717 2.70898c23.8389 2.16699 44.9688 5.95898 44.9688 5.95898s-18.9629 38.4678 -43.8857 60.6816
c-23.2969 20.5889 -52.5547 24.9229 -52.5547 24.9229zM267.106 305.507v-104.025h126.239s-2.70898 33.5918 -8.12695 62.8486c-4.87598 27.0898 -13.0029 50.3877 -13.0029 50.3877s-20.5879 -3.25098 -44.9697 -5.41797
c-28.1729 -2.16797 -60.1396 -3.79297 -60.1396 -3.79297zM267.106 181.435v-100.232s32.5088 -1.625 61.7656 -4.33398c22.7559 -2.16797 42.8018 -4.87695 42.8018 -4.87695s8.12695 18.4219 13.0039 45.5117c5.41797 27.6318 8.12695 63.9316 8.12695 63.9316h-125.698z
M317.494 -11.4453c26.0068 23.2969 46.0527 62.8486 46.0527 62.8486s-18.4209 2.70898 -41.1768 4.87598c-25.4639 2.16699 -55.2637 3.79297 -55.2637 3.79297v-95.3574s28.7158 4.33496 50.3877 23.8398zM384.678 5.89258
c20.0459 14.0859 37.9258 33.0488 37.9258 33.0488l-37.9258 9.75293s-3.79297 -10.8359 -13.0039 -25.4648c-11.3779 -18.4209 -28.7148 -41.7188 -28.7148 -41.7188s21.6719 9.75293 41.7188 24.3818zM469.739 114.252c11.3779 31.4238 13.0039 67.1826 12.4619 67.1826
h-69.3506s-1.08301 -29.2568 -5.95996 -56.8887c-4.87598 -29.2568 -14.0859 -57.4307 -14.0859 -57.4307l44.4268 -10.8359s21.1309 27.0898 32.5078 57.9727z" />
    <glyph glyph-name="graph" unicode="&#xf110;" 
d="M130.031 103.958c-20.0459 0 -33.0488 15.7119 -33.0488 35.7588c0 20.0459 13.5449 36.2998 34.1328 36.2998c4.87598 0 9.21094 -1.08301 13.5449 -2.70898l34.6748 26.5488c-1.08301 3.25 -1.625 7.04297 -1.625 10.2939c0 20.5879 16.2539 34.6748 35.7588 34.6748
s35.7588 -14.0869 35.7588 -34.6748c0 -4.87598 -1.08398 -9.21094 -2.70898 -13.5449l60.1396 -65.0156c3.79297 1.625 7.58496 2.16699 11.9199 2.16699c5.41797 0 10.8359 -1.62598 15.7119 -3.79297l108.359 130.573
c-2.70898 4.87695 -3.79199 10.2949 -3.79199 15.7129c0 19.5049 15.7119 35.7588 34.6748 35.7588s34.6748 -15.7129 34.6748 -35.7588c0 -20.0469 -15.7119 -35.7588 -34.6748 -35.7588c-2.70898 0 -4.87598 0.541992 -7.58496 1.08301l-112.694 -135.449
c0.541992 -2.70898 1.08398 -5.41797 1.08398 -8.66895c0 -20.0469 -16.2539 -36.3008 -36.3008 -36.3008s-36.3008 16.2539 -36.3008 36.3008c0 5.41797 1.08398 10.2939 3.25098 14.6289l-60.1396 62.8486c-3.79297 -1.08398 -8.12695 -2.16699 -12.4619 -2.16699
c-5.95898 0 -11.9189 1.625 -16.7949 4.33398l-33.0498 -25.4648c1.08301 -3.25098 1.625 -7.04297 1.625 -10.8359c0 -20.5879 -13.5449 -36.8418 -34.1338 -36.8418zM473.532 290.337c-8.66895 0 -15.7119 -6.50195 -15.7119 -15.1709s7.04297 -15.1699 15.7119 -15.1699
s15.7119 7.04297 15.7119 15.1699c0 8.66895 -7.04297 15.1709 -15.7119 15.1709zM318.578 114.794c-9.75293 0 -16.7959 -7.58594 -16.7959 -16.7959c0 -9.21094 7.58496 -16.7959 16.7959 -16.7959c9.20996 0 16.7949 7.58496 16.7949 16.7959
c0 9.20996 -7.58496 16.7959 -16.7949 16.7959zM212.385 223.695c-8.66797 0 -15.7119 -7.04297 -15.7119 -15.7119s7.04395 -15.7129 15.7119 -15.7129c8.66895 0 15.7129 7.04395 15.7129 15.7129s-7.04395 15.7119 -15.7129 15.7119zM130.031 156.512
c-8.66797 0 -16.2539 -7.58496 -16.2539 -16.7949c0 -9.21094 7.04395 -16.7959 16.2539 -16.7959c9.21094 0 16.2549 7.58496 16.2549 16.7959c0 9.20996 -7.58594 16.7949 -16.2549 16.7949zM506.04 -7.65332c0 0 5.95996 -3.79199 5.95996 -8.66797
c0 -4.87695 -6.50195 -9.75293 -6.50195 -9.75293l-61.2227 -38.4678s-8.12695 -0.541992 -11.9199 2.16699s-2.70898 9.21094 -2.70898 9.21094l8.12695 20.5879h-371.674l-0.541992 -31.9658h-31.9658l-0.541992 31.4248l-33.0498 0.541016v31.4248l33.0498 1.08398
l1.08398 376.55l-23.2979 -9.21094s-4.87598 -2.16699 -7.58496 0c-2.70898 1.62598 -3.25098 7.58594 -3.25098 7.58594l40.6348 68.2666s4.33496 4.87598 9.21094 4.87598s9.75195 -4.87598 9.75195 -4.87598l37.9258 -66.0996s0.541992 -5.41797 -1.625 -7.58496
c-2.16699 -2.70898 -8.12695 -1.62598 -8.12695 -1.62598l-22.7559 7.58496l1.08398 -374.925l370.049 -1.08301l-7.04395 23.2969s-1.08301 5.41797 1.62598 7.58594c2.16699 2.16699 8.12695 1.08301 8.12695 1.08301z" />
    <glyph glyph-name="balance" unicode="&#xf103;" 
d="M29.8662 213.547c-5.75977 -44.373 5.12012 -69.5469 5.12012 -69.5469s1.06738 -13.8662 -10.2393 -16.4268c-13.0137 -2.98633 -17.4941 8.10645 -17.4941 8.10645s-3.41309 10.4541 -5.11914 23.4668c-1.9209 15.1465 -2.13379 32.8535 -2.13379 32.8535
s0 39.6797 15.3604 85.1201c11.5195 33.4932 33.2793 69.7598 59.7334 96.2129c26.8799 26.667 62.5059 48.2139 94.7197 59.3066c47.1465 16.4268 87.4668 15.3604 87.4668 15.3604s51.2002 0 99.8398 -20.4805c45.2266 -19.1992 81.2803 -55.2529 81.2803 -55.2529
l-7.25391 46.293s-1.06641 10.0273 10.2402 11.9473s16.4268 -9.17383 16.4268 -9.17383l17.4932 -80.8525s4.69336 -11.7334 1.06641 -18.3477c-4.90625 -8.5332 -14.5059 -8.10645 -14.5059 -8.10645l-85.334 -1.06641s-12.373 2.13379 -12.373 15.3604
c0 10.666 11.3066 13.2266 11.3066 13.2266l51.627 1.06641s-31.7871 37.9736 -83.4141 59.3066c-40.96 16.8535 -86.3994 16.6396 -86.3994 16.6396s-40.5332 -0.425781 -83.4141 -16.6396c-35.8398 -13.6533 -71.8926 -39.8936 -97.7061 -71.6797
c-24.1064 -29.8672 -41.8135 -81.2803 -46.2939 -116.693zM505.174 252.373c0 0 11.0928 -40.5332 5.33301 -91.7334c-4.90723 -43.0928 -23.6797 -93.8662 -56.5332 -130.986c-24.96 -28.1602 -55.8936 -55.04 -89.6006 -69.5469
c-53.333 -23.04 -107.093 -24.5332 -107.093 -24.5332s-52.0537 1.49316 -98.7734 20.4805c-41.6006 16.8525 -78.2939 51.1992 -78.2939 51.1992l9.17383 -46.0801s1.91992 -11.3066 -10.2402 -14.293c-13.4395 -3.2002 -16.4268 7.25293 -16.4268 7.25293l-19.626 89.1738
s-1.9209 10.0264 2.13281 15.3604c4.2666 5.33301 14.5068 6.18652 14.5068 6.18652h82.1328s14.2939 -0.213867 14.5068 -14.2939c0 -14.293 -14.5068 -15.3594 -14.5068 -15.3594l-47.3594 -1.06738s34.1328 -33.9199 74.0264 -50.1328
c41.6006 -17.0664 88.5332 -16.4268 88.5332 -16.4268s35.2002 -1.28027 76.1602 12.373c26.667 8.95996 55.8936 26.0273 79.1465 47.1475c32.2139 29.2266 53.1201 72.1064 62.7207 105.387c10.2393 34.7725 8.10645 59.3066 8.10645 59.3066
s1.28027 5.33301 0.212891 17.4932c-0.852539 12.373 -4.05273 31.7861 -4.05273 31.7861s-1.70703 12.5869 8.31934 17.4932c9.60059 4.69336 17.4941 -6.18652 17.4941 -6.18652zM266.453 66.9863v-0.639648h-24.7461v28.5869s-12.5869 0.639648 -23.6807 4.05273
c-11.9463 3.62695 -22.6133 10.2402 -22.6133 10.2402s1.91992 7.67969 5.12012 14.293s7.25391 12.374 7.25391 12.374s9.59961 -5.12012 18.5596 -8.10742c8.32031 -2.55957 16.4268 -2.98633 16.4268 -2.98633s13.8662 -2.13281 24.7461 2.13379
c7.25391 2.98633 12.5869 11.0928 13.4404 16.4268c0.853516 5.5459 0.639648 15.3594 -5.12012 21.5459c-8.74609 9.38672 -24.7461 14.2939 -24.7461 14.2939s-25.3867 8.74609 -39.04 21.5469c-12.5869 11.7324 -13.4404 27.7324 -13.4404 27.7324
s-1.91992 19.2002 11.3066 35.8408c13.6533 17.2793 33.9199 19.4131 33.9199 19.4131l1.06641 29.6533h24.7471l1.06641 -28.5869s10.8799 0 20.4805 -2.98633c8.31934 -2.56055 15.3594 -8.10645 15.3594 -8.10645s0.213867 -8.53418 -2.13281 -15.3604
c-2.34668 -7.04004 -7.25391 -12.373 -7.25391 -12.373s-12.5859 8.5332 -25.8125 11.3066c-10.667 2.34668 -22.6133 0 -22.6133 0s-17.707 -5.12012 -16.4268 -22.6133c1.06641 -12.374 24.7461 -23.4668 24.7461 -23.4668s22.6133 -7.89355 37.1201 -19.4131
c12.5869 -9.81348 17.4932 -23.4668 17.4932 -23.4668s9.60059 -20.2666 -2.98633 -45.0137c-11.3066 -21.9736 -40.1064 -25.5996 -40.1064 -25.5996z" />
    <glyph glyph-name="delete" unicode="&#xf107;" 
d="M275.233 194.438l36.8428 -35.2178s5.95996 -10.2939 -1.625 -17.8789c-7.58594 -7.58496 -17.3379 -2.16699 -17.3379 -2.16699l-37.3838 36.8418l-35.7588 -36.2998s-11.3779 -5.95996 -18.9629 1.625c-7.58594 6.50195 -1.62598 17.8789 -1.62598 17.8789
l36.8428 35.7588l-36.8428 37.3848s-5.41797 11.9189 1.62598 17.8789c8.66797 7.04395 18.9629 0.541992 18.9629 0.541992l35.7588 -35.7588l35.7588 35.7588s9.20996 5.95996 17.3369 0c9.75293 -7.04297 2.70898 -19.5049 2.70898 -19.5049zM383.052 316.885
c67.1836 -68.2666 65.5576 -181.503 -2.70898 -250.312c-67.7246 -67.7246 -179.335 -69.3496 -251.937 2.16797c-67.7246 66.6406 -70.9756 178.793 0 250.311c70.9756 70.4336 184.212 69.3506 254.646 -2.16699zM364.631 83.9111
c59.0557 59.0557 62.3066 156.038 0 219.429c-57.9727 58.5137 -154.955 63.9316 -222.138 -2.70898c-57.9727 -57.4307 -55.8057 -160.373 -0.541992 -214.553c66.0996 -65.5576 163.082 -61.2227 222.68 -2.16699z" />
  </font>
</defs>
</svg>
